<svg xmlns="http://www.w3.org/2000/svg" viewBox="0 0 101.84 93.39"><defs><style>.cls-1{fill:#fff;}</style></defs><title>Middel 1</title><g id="Laag_2" data-name="Laag 2"><g id="Laag_1-2" data-name="Laag 1"><polygon class="cls-1" points="0 81.9 0 93.18 8.09 93.18 8.09 91.02 2.57 91.02 2.57 88.51 7.04 88.51 7.04 86.35 2.57 86.35 2.57 84.06 8.09 84.06 8.09 81.9 0 81.9"/><polygon class="cls-1" points="25.72 81.9 25.72 89.85 21.52 81.9 18.38 81.9 18.38 93.19 20.85 93.19 20.85 85.23 25.06 93.19 28.19 93.19 28.19 81.9 25.72 81.9"/><path class="cls-1" d="M61.78,91.16c-2.27,0-2.81-1.84-2.81-3.62s.54-3.62,2.81-3.62,2.81,1.84,2.81,3.62-.55,3.62-2.81,3.62m0-9.46c-3.66,0-5.46,2.34-5.46,5.84s1.8,5.85,5.46,5.85,5.46-2.35,5.46-5.85-1.8-5.84-5.46-5.84"/><polygon class="cls-1" points="99.34 89.85 95.13 81.9 92 81.9 92 93.19 94.46 93.19 94.46 85.24 98.67 93.19 101.81 93.19 101.81 81.9 99.34 81.9 99.34 89.85"/><polygon class="cls-1" points="81.12 93.19 89.21 93.19 89.21 91.02 83.69 91.02 83.69 88.51 88.16 88.51 88.16 86.35 83.69 86.35 83.69 84.06 89.21 84.06 89.21 81.9 81.12 81.9 81.12 93.19"/><polygon class="cls-1" points="10.19 83.56 11.75 83.56 11.75 91.53 10.19 91.53 10.19 93.19 15.88 93.19 15.88 91.53 14.32 91.53 14.32 83.56 15.88 83.56 15.88 81.9 10.19 81.9 10.19 83.56"/><path class="cls-1" d="M35.38,91.08H34V84h1.41c2.53,0,3.12,1.82,3.12,3.54s-.59,3.54-3.12,3.54m0-9.18h-4V93.18h4c3.89,0,5.73-2.26,5.73-5.64s-1.84-5.64-5.73-5.64"/><polygon class="cls-1" points="51.01 86.31 46.45 86.31 46.45 81.9 43.89 81.9 43.89 93.19 46.45 93.19 46.45 88.53 51.01 88.53 51.01 93.19 53.58 93.19 53.58 81.9 51.01 81.9 51.01 86.31"/><polygon class="cls-1" points="73.77 90.45 71.04 81.9 68.37 81.9 72.27 93.18 75.19 93.18 79.09 81.9 76.5 81.9 73.77 90.45"/><path class="cls-1" d="M63.85,66.07c0,1.23-.68,1.71-2.46,1.71H60V64.35h1.36c1.78,0,2.46.5,2.46,1.72m-6.39-3.83V73.53H60V69.89h1.38c3.17,0,5.11-1.19,5.11-3.82s-1.94-3.83-5.11-3.83Z"/><path class="cls-1" d="M85.8,67.78H84.45V64.35H85.8c1.78,0,2.47.5,2.47,1.72s-.69,1.71-2.47,1.71m5.14-1.71c0-2.63-1.94-3.83-5.12-3.83H81.88V73.53h2.57V69.89h1.72l2.34,3.64h2.95l-2.87-4.17a3.27,3.27,0,0,0,2.35-3.29"/><polygon class="cls-1" points="92.76 62.24 92.76 64.45 96.02 64.45 96.02 73.53 98.59 73.53 98.59 64.45 101.84 64.45 101.84 62.24 92.76 62.24"/><path class="cls-1" d="M15.94,67.78H14.58V64.35h1.36c1.78,0,2.47.5,2.47,1.72s-.69,1.71-2.47,1.71m5.66,5.75-2.87-4.17a3.27,3.27,0,0,0,2.35-3.29c0-2.63-1.95-3.83-5.12-3.83H12V73.53h2.56V69.89H16.3l2.35,3.64Z"/><path class="cls-1" d="M27.26,69.54l1.58-4.75,1.59,4.75Zm7.2,4L30.31,62.24H27.48L23.33,73.53h2.61l.69-2h4.43l.71,2Z"/><polygon class="cls-1" points="36.26 63.9 37.81 63.9 37.81 71.87 36.26 71.87 36.26 73.53 41.94 73.53 41.94 71.87 40.38 71.87 40.38 63.9 41.94 63.9 41.94 62.24 36.26 62.24 36.26 63.9"/><path class="cls-1" d="M4.69,71.51H2.57v-2.8H4.69c1.62,0,2,.55,2,1.4s-.4,1.4-2,1.4M2.57,64.27H4.43c1.46,0,1.82.48,1.82,1.27s-.36,1.27-1.82,1.27H2.57Zm4.89,3.41A2.27,2.27,0,0,0,8.9,65.4c0-2-1.48-3.16-4.21-3.16H0V73.53H5c2.85,0,4.36-1.2,4.36-3.28a2.48,2.48,0,0,0-1.9-2.57"/><polygon class="cls-1" points="51.79 70.19 47.58 62.24 44.45 62.24 44.45 73.53 46.91 73.53 46.91 65.58 51.12 73.53 54.26 73.53 54.26 62.24 51.79 62.24 51.79 70.19"/><path class="cls-1" d="M73.86,71.51c-2.26,0-2.81-1.84-2.81-3.63s.55-3.61,2.81-3.61,2.82,1.84,2.82,3.61-.55,3.63-2.82,3.63m0-9.47c-3.66,0-5.46,2.35-5.46,5.84s1.8,5.85,5.46,5.85,5.47-2.35,5.47-5.85S77.53,62,73.86,62"/><path class="cls-1" d="M76.34,15.28A10.19,10.19,0,1,1,66.16,25.46,10.18,10.18,0,0,1,76.34,15.28m0,35.64A25.46,25.46,0,1,0,50.92,25.46,25.46,25.46,0,0,0,76.38,50.92"/><polygon class="cls-1" points="0 0 0 17.31 15.28 25.46 0 33.61 0 50.92 47.87 25.46 0 0"/></g></g></svg>