<svg xmlns="http://www.w3.org/2000/svg" viewBox="0 0 34.93 34.93"><defs><style>.cls-1{fill:#fff;}</style></defs><title>Middel 16</title><g id="Laag_2" data-name="Laag 2"><g id="Laag_1-2" data-name="Laag 1"><path class="cls-1" d="M3.83,14.87l-.16,1-.89-.68ZM2,15.83a.28.28,0,0,1,.2-.08.42.42,0,0,1,.16,0l2.28,1.75.13-.84-.46-.34.27-1.73.53-.17.12-.84-3,1Z"/><path class="cls-1" d="M11,5.19l-.9.52,0-1.12ZM9.3,4.59l0,2.87L10.09,7l0-.56,1.52-.88.46.31.74-.43-2.7-1.74-1,.59a.32.32,0,0,1,.25.26"/><path class="cls-1" d="M5.47,8.14,7.26,9.86l.57-.62-.65-.62L8.26,7.44,7.78,7,6.7,8.15l-.44-.42L7.82,6l-.48-.46L5.07,8h.07a.52.52,0,0,1,.33.11"/><path class="cls-1" d="M26.41,6l-.26,2,.07.06,1.94-.45L27.09,9l.61.57,1.74-2.3-.67-.63L27,7.06l.21-1.81-.62-.57v0l-.21-.18a.51.51,0,0,1-.11.41L24.51,6.63l.61.57Z"/><path class="cls-1" d="M21.43,3.85a.74.74,0,0,1,.76-.49,1.65,1.65,0,0,1,.52.1c.61.22.91.66.75,1.12a.73.73,0,0,1-.76.49A1.63,1.63,0,0,1,22.18,5c-.61-.23-.91-.66-.75-1.13M22,5.65a2.6,2.6,0,0,0,.85.16,1.44,1.44,0,0,0,1.46-.94,1.38,1.38,0,0,0-.18-1.24,2.26,2.26,0,0,0-1.14-.84,2.31,2.31,0,0,0-.84-.16,1.45,1.45,0,0,0-1.47.93c-.29.84.27,1.71,1.32,2.09"/><path class="cls-1" d="M6.19,10.09,5.23,12,3.29,11l-.47.93a.49.49,0,0,1,.22,0,.42.42,0,0,1,.2,0l2.22,1.15,1.32-2.64Z"/><path class="cls-1" d="M18.14,2.55h0a.34.34,0,0,1,.35.37.35.35,0,0,1-.36.38H16.74V2.56ZM15.9,2.26l0,2.51h.83V4h1.19l.54.77h.94l-.65-.86h0A1,1,0,0,0,19.31,3a1,1,0,0,0-1.1-1.09l-2.32,0H15.7a.57.57,0,0,1,.2.37"/><path class="cls-1" d="M29.15,10.8l.37-.2L30.26,12l.59-.32-.74-1.42.35-.19,1.07,2.05.59-.32-1.55-3a.52.52,0,0,1-.25.35l-2.15,1.17,1.51,2.89.58-.31Z"/><path class="cls-1" d="M22.06,17.43H19.44a.24.24,0,0,0,0,.48h3.17a2.8,2.8,0,0,1,0,5.6H19.33a.24.24,0,1,0,0,.47h1.94a1.85,1.85,0,0,1,1.85,1.85c0,1.32-1.41,1.85-1.84,2a1.36,1.36,0,0,0,.57-.93c0-.59-.24-1.15-1.25-1.15H19.41a2.26,2.26,0,0,1,0-4.51h3.15A.23.23,0,0,0,22.8,21a.24.24,0,0,0-.24-.24H19.49a3.08,3.08,0,0,1,0-6.16H22a.58.58,0,1,0,0-1.15H17.08a2.39,2.39,0,0,1,1.13-1.39h2.7a.25.25,0,0,0,.25-.21s0,0,0,0a.29.29,0,0,0,0-.09.27.27,0,0,0-.24-.16H18.26a3.3,3.3,0,0,1-1.13-1.27h2.16c.78,0,.65-.39,1-.72a1,1,0,0,1,.73-.23h1.37a.8.8,0,0,0,.8-.8.83.83,0,0,0-.09-.36,6,6,0,0,1,3.3,5,4.12,4.12,0,0,1-4.37,4.23m-6,1.37H12.94v8.57a11.18,11.18,0,0,1-2.71-1.79V18.8H6.72a11.41,11.41,0,0,1-.08-1.32,10.7,10.7,0,0,1,.09-1.39h3.5V9.41a11.14,11.14,0,0,1,2.71-1.78v8.46h3.32a3.48,3.48,0,0,0-.39,1.61,3.38,3.38,0,0,0,.18,1.1m-1.45-7a.64.64,0,0,1,.67-.58.71.71,0,0,1,.5.21.31.31,0,0,0,.22.09c.07,0,.1,0,.1-.11,0-.45-.11-1.36-.33-1.48h-.15a.75.75,0,0,1-.37-.38l0-.08h.07a1.24,1.24,0,0,1,.33,0,.77.77,0,0,1,.6.27,1.92,1.92,0,0,1,.42.7,2.94,2.94,0,0,0,1,1.41l0,0,0,0a3,3,0,0,0-1,1.41,1.92,1.92,0,0,1-.42.7.78.78,0,0,1-.6.28,1.26,1.26,0,0,1-.33-.05H15.2l0-.08a.75.75,0,0,1,.37-.38h.15c.22-.12.33-1,.33-1.48,0-.08,0-.11-.1-.11a.31.31,0,0,0-.22.09.71.71,0,0,1-.5.21.64.64,0,0,1-.67-.58v-.07Zm2.61-4.49a.34.34,0,1,1,0,.67.34.34,0,0,1,0-.67m1.29,0a.34.34,0,1,1-.34.34.34.34,0,0,1,.34-.34M20.09,8.5a.23.23,0,0,1-.23.23H17.11a.23.23,0,0,1,0-.46h2.75a.23.23,0,0,1,.23.23m-.33-1.24a.34.34,0,1,1-.34.34.34.34,0,0,1,.34-.34M17.47,6A11.49,11.49,0,1,0,29,17.47,11.48,11.48,0,0,0,17.47,6"/><path class="cls-1" d="M31.73,16.69h-.12c-.42,0-.74-.37-.84-1s.13-1.13.6-1.21h.13c.41,0,.73.37.83,1s-.12,1.14-.6,1.22M33,15.35c-.17-1-.81-1.7-1.56-1.7l-.23,0c-.85.15-1.33,1.07-1.15,2.19s.8,1.7,1.57,1.7a.9.9,0,0,0,.23,0c.85-.14,1.33-1.06,1.14-2.19"/><path class="cls-1" d="M17.47,34.24A16.77,16.77,0,1,1,34.23,17.47,16.77,16.77,0,0,1,17.47,34.24M17.47,0A17.47,17.47,0,1,0,34.93,17.47,17.47,17.47,0,0,0,17.47,0"/></g></g></svg>