<svg xmlns="http://www.w3.org/2000/svg" viewBox="0 0 88.96 24.91"><defs><style>.cls-1{fill:#fff;}</style></defs><title>Middel 3</title><g id="Laag_2" data-name="Laag 2"><g id="Laag_1-2" data-name="Laag 1"><polygon class="cls-1" points="59.54 24.43 62.63 9.49 63.8 24.43 70.45 24.43 67.37 0.71 60.25 0.71 56.93 14.94 53.61 0.71 46.49 0.71 43.41 24.43 50.05 24.43 51.24 9.49 54.32 24.43 59.54 24.43"/><polygon class="cls-1" points="73.78 0.71 73.78 24.43 88.96 24.43 88.96 19.45 80.18 19.45 80.18 0.71 73.78 0.71"/><path class="cls-1" d="M7.12.71,0,24.43H7.12l1-4.27h6.16l.95,4.27H22.3L15.18.71Zm4,5.22,2.14,9.73H9Z"/><path class="cls-1" d="M39.38,7.35C33.48,2.2,24.29,4.29,24.2,9,22.86.26,33.45-1.57,39.38,1.19a38.82,38.82,0,0,1,0,6.16"/><path class="cls-1" d="M34.49,10.15C33,9.57,30.84,9,30.84,7.35c0-.69.28-1.44,1.66-1.89-4.74.47-6.33,6.24-1.08,9.11.91.5,2.5,1,2.5,2.75,0,2-2.2,2.72-3.65,2.7a11.27,11.27,0,0,1-6.55-2.47v5.7c2.61,1.12,6.87,2.42,11.13,1.11,3.45-1.06,6.43-4,6.43-7,0-5-4.36-6.23-6.79-7.17"/></g></g></svg>