<svg xmlns="http://www.w3.org/2000/svg" viewBox="0 0 71.69 11.39"><defs><style>.cls-1{fill:#fff;}</style></defs><title>Middel 15</title><g id="Laag_2" data-name="Laag 2"><g id="Laag_1-2" data-name="Laag 1"><path class="cls-1" d="M60.71,10c-.4-.23-.14-.53-.14-.53l.77-1a.43.43,0,0,1,.55-.1,10.68,10.68,0,0,0,5.86.9c1.49-.2,1.75-.84,1.75-1.4a1.16,1.16,0,0,0-.76-1,26.3,26.3,0,0,0-4.48-.58C62,6.06,60.74,5,60.74,3.25A2.68,2.68,0,0,1,62.15.82c1-.69,5.18-1.68,9.3.57a.35.35,0,0,1,.14.54l-.77,1a.44.44,0,0,1-.55.1,10.47,10.47,0,0,0-4.72-1c-2.61.08-2.61.9-2.61,1.26s0,.91,1.62,1.1l3.07.33C70.51,5,71.74,6.12,71.68,8s-1.25,2.64-2.83,3.07A11.75,11.75,0,0,1,60.71,10"/><path class="cls-1" d="M33.89,11.37H32.38A.35.35,0,0,1,32,11V.38A.36.36,0,0,1,32.38,0h1.51a.36.36,0,0,1,.35.36V11a.35.35,0,0,1-.35.35"/><path class="cls-1" d="M21.48,7.24C25.92,12.09,30,11.33,30,11.33a.35.35,0,0,0,.35-.35V9.62A.35.35,0,0,0,30,9.27a8.6,8.6,0,0,1-4.29-1A11,11,0,0,1,22.88,5.7a11,11,0,0,1,2.83-2.54,8.6,8.6,0,0,1,4.29-1,.35.35,0,0,0,.35-.35V.42A.35.35,0,0,0,30,.07s-4.08-.76-8.51,4.09C17.05-.69,13,.07,13,.07a.35.35,0,0,0-.35.35V1.78a.35.35,0,0,0,.35.35,8.62,8.62,0,0,1,4.29,1A11,11,0,0,1,20.09,5.7a11,11,0,0,1-2.83,2.54,8.74,8.74,0,0,1-4.29,1,.35.35,0,0,0-.35.35V11a.35.35,0,0,0,.35.35s4.08.76,8.51-4.09"/><path class="cls-1" d="M43.4,9.43H38.9a1.53,1.53,0,0,1,0-3h4.5a1.53,1.53,0,0,1,0,3.05M45.34,1a9.73,9.73,0,0,0-9.1.41.35.35,0,0,0-.14.54l.76,1a.47.47,0,0,0,.56.1,9.37,9.37,0,0,1,4.52-1c2.61.08,2.74,1,2.74,1.39V4.72a3.56,3.56,0,0,0-1.39-.29H39a3.47,3.47,0,0,0-2.45,5.93,3.42,3.42,0,0,0,2.45,1h4.27A3.46,3.46,0,0,0,46.75,7.9V3.41A2.73,2.73,0,0,0,45.34,1"/><path class="cls-1" d="M7.85,9.43H3.35a1.53,1.53,0,0,1,0-3h4.5a1.53,1.53,0,0,1,0,3.05M9.79,1a9.73,9.73,0,0,0-9.1.41.36.36,0,0,0-.15.54l.77,1a.47.47,0,0,0,.56.1A9.34,9.34,0,0,1,6.39,2c2.61.08,2.74,1,2.74,1.39V4.72a3.6,3.6,0,0,0-1.39-.29H3.46a3.47,3.47,0,1,0,0,6.94H7.74A3.46,3.46,0,0,0,11.2,7.9V3.41A2.73,2.73,0,0,0,9.79,1"/><path class="cls-1" d="M53.8,0a13.43,13.43,0,0,1,2,.12c3.62.46,3.51,3.18,3.51,3.18V11a.36.36,0,0,1-.35.36H57.56A.36.36,0,0,1,57.2,11V3.32s0-1-1.87-1.17a16.76,16.76,0,0,0-3.06,0c-1.92.17-1.88,1.17-1.88,1.17V11a.35.35,0,0,1-.35.36H48.67a.35.35,0,0,1-.35-.36V3.32S48.21.6,51.82.14a13.68,13.68,0,0,1,2-.12"/></g></g></svg>