<?xml version="1.0" encoding="utf-8"?>
<!-- Generator: Adobe Illustrator 24.2.3, SVG Export Plug-In . SVG Version: 6.00 Build 0)  -->
<svg version="1.1" id="Laag_1" xmlns="http://www.w3.org/2000/svg" xmlns:xlink="http://www.w3.org/1999/xlink" x="0px" y="0px"
	 viewBox="0 0 118.3 19.6" style="enable-background:new 0 0 118.3 19.6;" xml:space="preserve">
<style type="text/css">
	.st0{fill:#FFFFFF;}
</style>
<g>
	<path class="st0" d="M10.8,9.5c3.1-0.9,3.9-2,3.9-4.4c0-3-1.6-4.3-5.4-4.3H0v2.3h1.3v16.4h8.2c4.2,0,6.2-1.8,6.2-5.4
		C15.8,11.1,14.4,9.6,10.8,9.5z M7,17.8c-0.3,0-0.7,0-1.1,0V2.4c0.3,0,0.6,0,0.9,0c2.5,0,3.5,0.9,3.5,3.1C10.3,7.9,9.4,8.8,7,9v1.7
		c3.2,0,4.3,1.2,4.3,3.5C11.3,16.8,10.1,17.8,7,17.8z M29.5,17.6h1v1.8c0,0-2.4,0-3.6,0c-1.1,0-1.6-0.3-1.6-1.6
		c-1.4,1.7-1.9,1.6-4.1,1.6c-2.9,0-4.1-1.6-4.1-3.9c0-1.8,0.5-3.6,2.3-4.3c1.2-0.5,2.6-0.5,5.1-0.5v1.6c-2.4,0-3.3,0.8-3.3,2.6
		c0,1.3,0.7,2.2,2.3,2.2c0.7,0,1.2,0,1.9-0.2V9.9c0-1.9-0.5-2.7-1.9-2.7c-0.6,0-1.2,0.1-1.7,0.2v1.8h-3.5V6.4c0,0,2.6-0.9,5.6-0.9
		c2.3,0,4.1,0.6,4.9,1.7c0.6,0.9,0.7,2,0.7,3.5V17.6z M56.6,17.6h1v1.8c0,0-2.4,0-3.6,0c-1.1,0-1.6-0.3-1.6-1.6
		c-1.4,1.7-1.9,1.6-4.1,1.6c-2.9,0-4.1-1.6-4.1-3.9c0-1.8,0.5-3.6,2.3-4.3c1.2-0.5,2.6-0.5,5.1-0.5v1.6c-2.4,0-3.3,0.8-3.3,2.6
		c0,1.3,0.7,2.2,2.3,2.2c0.7,0,1.2,0,1.9-0.2V9.9c0-1.9-0.5-2.7-1.9-2.7c-0.6,0-1.2,0.1-1.7,0.2v1.8h-3.5V6.4c0,0,2.6-0.9,5.6-0.9
		c2.3,0,4.1,0.6,4.9,1.7c0.6,0.9,0.7,2,0.7,3.5V17.6z M90.4,17.6h1v1.8c0,0-2.4,0-3.6,0c-1.1,0-1.6-0.3-1.6-1.6
		c-1.4,1.7-1.9,1.6-4.1,1.6c-2.9,0-4.1-1.6-4.1-3.9c0-1.8,0.5-3.6,2.3-4.3c1.2-0.5,2.6-0.5,5.1-0.5v1.6c-2.4,0-3.3,0.8-3.3,2.6
		c0,1.3,0.7,2.2,2.3,2.2c0.7,0,1.2,0,1.9-0.2V9.9c0-1.9-0.5-2.7-1.9-2.7c-0.6,0-1.2,0.1-1.7,0.2v1.8h-3.5V6.4c0,0,2.6-0.9,5.6-0.9
		c2.3,0,4.1,0.6,4.9,1.7c0.6,0.9,0.7,2,0.7,3.5V17.6z M75.9,17.6h1.3v1.8h-6.6v-1.8h1.3V7.5h-1.2V5.9c3.1,0,3.3,0,4.2,0
		c1,0,1,0.6,1,1L75.9,17.6z M43.3,7.8L39,19.4h-3.3L31.4,7.6h-1.1V5.9h3.3c1.1,0,1.6,0.3,1.9,1.2l2.7,8l2.4-7.5h-1V5.9h3.2
		C43.5,5.9,43.9,6.4,43.3,7.8z M72.2,1.8c0-1.2,0.6-1.8,1.9-1.8c1.2,0,1.9,0.6,1.9,1.8c0,1.2-0.6,1.8-1.9,1.8
		C72.8,3.5,72.2,2.9,72.2,1.8z M68,5.4c0.7,0,1.2,0.1,1.7,0.3v3.8h-3.3V7.9c-1.3,0-2.2,1.2-2.2,1.9v7.8h1.7v1.8h-7v-1.8h1.3V7.5
		h-1.3V5.9c3.3,0,3.7,0,4.3,0c0.9,0,1,0.3,1.1,1.2C65.2,5.9,66.7,5.4,68,5.4z M20.2,2.8H18V0.6h0.5v1.8h1.7V2.8z M22.3,2.8h-0.5V0.6
		h0.5V2.8z M26.7,2.8h-2.4V0.6h2.4v0.4h-1.8v0.4H26v0.4h-1.3v0.5h1.9V2.8z M30.3,2.1c0-0.2-0.3-0.2-0.7-0.2c-0.8,0-1.3-0.2-1.3-0.6
		c0-0.4,0.4-0.7,1.2-0.7c0.5,0,1,0.1,1.3,0.3l-0.3,0.3c-0.3-0.2-0.6-0.2-1-0.2c-0.5,0-0.7,0.1-0.7,0.2c0,0.1,0.1,0.1,0.2,0.2
		c0.2,0.1,0.5,0,0.8,0.1c0.7,0.1,1,0.2,1,0.7c0,0.5-0.4,0.8-1.3,0.8c-0.5,0-1-0.1-1.4-0.4l0.3-0.4c0.4,0.2,0.7,0.3,1.1,0.3
		C30,2.4,30.3,2.3,30.3,2.1z M33.1,2.8h-0.5V0.6h0.5v0.8h1.6V0.6h0.5v2.2h-0.5V1.9h-1.6V2.8z M37.4,2.5c0.3,0.2,0.7,0.4,1.1,0.4
		c0.4,0,0.8-0.1,1.1-0.4C39.8,2.3,40,2,40,1.7c0-0.3-0.1-0.6-0.4-0.8c-0.3-0.2-0.7-0.4-1.1-0.4c-0.4,0-0.8,0.1-1.1,0.4
		C37.1,1.1,37,1.4,37,1.7C37,2,37.1,2.3,37.4,2.5z M38.5,1c0.6,0,0.9,0.3,0.9,0.7c0,0.4-0.4,0.7-0.9,0.7c-0.6,0-0.9-0.3-0.9-0.7
		C37.6,1.3,37.9,1,38.5,1z M44.4,2.1c0,0.5-0.5,0.8-1.3,0.8c-0.8,0-1.3-0.3-1.3-0.8V0.6h0.5V2c0,0.3,0.3,0.4,0.8,0.4
		c0.5,0,0.8-0.2,0.8-0.4V0.6h0.5V2.1z M47,1.1h-1V0.6h2.6v0.4h-1v1.8H47V1.1z M54.2,2.2c0-0.2-0.3-0.3-0.8-0.3l-0.1,0
		c-0.7,0-1.1-0.2-1.1-0.6c0-0.4,0.4-0.7,1.1-0.7c0.5,0,0.9,0.1,1.2,0.3l0,0l-0.3,0.3l0,0C53.9,1,53.6,1,53.3,1
		c-0.4,0-0.6,0.1-0.6,0.2c0,0.1,0,0.1,0.2,0.2c0.1,0,0.3,0.1,0.5,0.1c0.1,0,0.3,0,0.5,0c0.6,0.1,0.8,0.3,0.8,0.7
		c0,0.5-0.5,0.8-1.2,0.8c-0.6,0-1-0.1-1.3-0.4l0,0l0.3-0.3l0,0c0.3,0.2,0.7,0.3,1.1,0.3C53.9,2.5,54.2,2.4,54.2,2.2z M56.8,2.9h-0.5
		V0.6h0.5V2.9z M59.1,2.9h-0.5V0.6h0.5l0,0l1.6,1.7V0.6h0.5v2.3h-0.5l-1.6-1.7V2.9z M65.3,2.6c0.2-0.2,0.4-0.5,0.4-0.8
		c0-0.7-0.5-1.2-1.3-1.2H63v2.3h1.5C64.8,2.9,65.1,2.8,65.3,2.6z M63.5,2.4V1h1c0.5,0,0.8,0.3,0.8,0.7c0,0.4-0.3,0.7-0.7,0.7H63.5z
		 M69.7,2.1c0,0.5-0.5,0.8-1.2,0.8c-0.6,0-1-0.1-1.3-0.4l0,0l0.3-0.3l0,0c0.3,0.2,0.7,0.3,1.1,0.3c0.5,0,0.7-0.1,0.7-0.3
		c0-0.2-0.3-0.3-0.8-0.3l-0.1,0c-0.7,0-1.1-0.2-1.1-0.6c0-0.4,0.4-0.7,1.1-0.7c0.5,0,0.9,0.1,1.2,0.3l0,0l-0.3,0.3l0,0
		C68.9,1,68.6,1,68.3,1c-0.4,0-0.6,0.1-0.6,0.2c0,0.1,0,0.1,0.2,0.2c0.1,0,0.3,0.1,0.5,0.1c0.1,0,0.3,0,0.5,0
		C69.4,1.5,69.7,1.8,69.7,2.1z M78.7,1.1l-0.4,0.2V0.8l0,0c0.1,0,0.3-0.1,0.4-0.2l0,0h0.5v2.3h-0.5V1.1z M82.8,1h-1.9V0.6h2.5V1
		l-1.6,1.9h-0.6L82.8,1z M85.4,1.1L85,1.2V0.8l0,0c0.1,0,0.3-0.1,0.4-0.2l0,0h0.5v2.3h-0.5V1.1z M88.9,2.1c0.4,0,0.7-0.1,1-0.3
		c0,0,0,0,0,0c0,0.3-0.2,0.6-0.5,0.7c-0.1,0-0.2,0.1-0.4,0.1c-0.3,0-0.6-0.1-0.7-0.3l0,0l-0.3,0.3l0,0c0.3,0.3,0.7,0.4,1.1,0.4
		c0.4,0,0.7-0.1,1-0.3c0.3-0.2,0.4-0.5,0.4-0.8c0-0.7-0.6-1.2-1.4-1.2c-0.7,0-1.2,0.3-1.2,0.8C87.8,1.8,88.2,2.1,88.9,2.1z
		 M88.9,1.7c-0.4,0-0.6-0.1-0.6-0.3c0-0.2,0.3-0.3,0.7-0.3c0.4,0,0.7,0.1,0.8,0.3C89.6,1.5,89.3,1.7,88.9,1.7z"/>
	<g>
		<polygon class="st0" points="113.8,13.1 113.7,14 114,14 113.8,13.1 		"/>
		<path class="st0" d="M111.6,15.9L111.6,15.9L111.6,15.9l0,0.1v1.1c0,0.4,0.3,0.4,0.4,0.4v0c0,0,0,0,0,0v-0.1v-1.1
			C112,15.7,111.7,15.8,111.6,15.9z"/>
		<path class="st0" d="M110.3,14.3L110.3,14.3C110.3,14.3,110.3,14.3,110.3,14.3l0-0.1v-1.1c0-0.5-0.3-0.4-0.4-0.4v0l0,0v0.1v1.1
			C110,14.4,110.2,14.3,110.3,14.3z"/>
		<path class="st0" d="M115,15.7c-0.1,0-0.1,0-0.1,0.1c0,0-0.1,0.1-0.1,0.2v1.2c0,0.1,0,0.1,0.1,0.2c0,0,0.1,0.1,0.1,0.1
			c0.1,0,0.1,0,0.1-0.1c0,0,0.1-0.1,0.1-0.2v-1.2c0-0.1,0-0.1-0.1-0.2C115.1,15.7,115.1,15.7,115,15.7z"/>
		<path class="st0" d="M117.2,0.2H94.5c-0.6,0-1,0.5-1,1v17.4c0,0.6,0.5,1,1,1h22.8c0.6,0,1-0.5,1-1V1.2
			C118.3,0.6,117.8,0.2,117.2,0.2z M106.8,15.3c0,1.1-0.6,2-1.9,2.4c-0.6,0.2-1.3,0.3-2,0.3l0-11.5c0-4.2-4.2-2.9-4.2-2.9v0.7v7.6
			l0,1.9c0,2.4,1.7,2.6,2.9,2.5V18c0,0-0.1,0-0.1,0l-0.3,0l-0.4,0l0,0c0,0-0.1,0-0.1,0c-0.2,0-0.8,0-1,0l0,0l0.2,0
			c-2-0.1-3.4-0.6-4-1.5c-0.5-0.8-0.7-1.9-0.7-3.4V4.4c0-1.2,0.9-2.3,1.9-2.5c0.2,0,1.3-0.1,1.9-0.1c0.7,0,2.6,0,2.7,0
			c0.1,0,0.3,0,0.4,0l0,0l0,0c2,0.1,3.3,0.6,4,1.5c0.5,0.8,0.7,1.9,0.7,3.4V15.3z M108.9,10.7h-1.2V9.5h1.2V10.7z M109.7,14.3
			c0-0.1-0.1-0.2-0.1-0.4v-1.1c0-0.2,0.1-0.3,0.2-0.3c0,0,0.1,0,0.2,0c0.1,0,0.2,0,0.2,0c0,0,0,0,0,0h0l0,0c0.2,0,0.3,0.1,0.4,0.2
			c0,0.1,0.1,0.2,0.1,0.4v1.1c0,0.1-0.1,0.2-0.1,0.3c0,0,0,0-0.1,0c0,0-0.1,0-0.2,0c0,0-0.1,0-0.1,0l0,0l0,0h0h0c0,0,0,0,0,0
			c0,0,0,0,0,0c0,0,0,0,0,0c0,0,0,0,0,0l0,0h0C109.9,14.5,109.8,14.5,109.7,14.3z M110,17.7l1.6-5.3h0.4l-1.6,5.3H110z M112.3,17.4
			c0,0.1-0.1,0.2-0.1,0.3c0,0,0,0-0.1,0c0,0-0.1,0-0.2,0h-0.1h0l0,0h0h0c0,0,0,0,0,0c0,0,0,0,0,0c0,0,0,0,0,0c0,0,0,0,0,0h0
			c-0.2,0-0.3-0.1-0.4-0.2c0-0.1-0.1-0.2-0.1-0.4V16c0-0.2,0.1-0.3,0.2-0.3c0,0,0.1,0,0.2,0c0.1,0,0.2,0,0.2,0c0,0,0,0,0,0l0,0h0
			c0.2,0,0.3,0.1,0.4,0.2c0,0.1,0.1,0.2,0.1,0.4V17.4z M113,11L113,11c-0.2,0-0.5,0-0.6,0l0,0c-1.1-0.1-1.9-0.4-2.3-0.9
			c-0.3-0.5-0.4-1.1-0.4-2V3.6c0-0.7,0.6-1.5,1.3-1.6c0.1,0,0.7-0.1,1.1-0.1c0.4,0,1.5,0,1.5,0c0.1,0,0.2,0,0.2,0
			c1.2,0,2,0.3,2.4,0.9c0.3,0.5,0.4,1.1,0.4,2v4.6c0,0.7-0.5,1.3-1.3,1.5c-0.4,0.1-0.8,0.1-1.2,0.1l-0.2,0l0-6.4
			c0-0.9-0.4-1.4-1.3-1.4c-0.2,0-0.5,0-0.6,0.1l0,5.3c0,0.4,0.1,0.7,0.3,0.9c0.1,0.1,0.3,0.2,0.6,0.2V11z M115.5,14.4v0.3h-0.9v-2.3
			h0.3v2H115.5z M113.9,17.7h-0.3l-0.4-2.3h0.3l0.2,1.6h0l0.2-1.6h0.3L113.9,17.7z M114.1,14.8l-0.1-0.5h-0.4l-0.1,0.5h-0.3l0.5-2.3
			h0.2l0.5,2.3H114.1z M115.5,17.1c0,0.1,0,0.2,0,0.2c0,0.1-0.1,0.1-0.1,0.2c0,0-0.1,0.1-0.2,0.1c-0.1,0-0.1,0-0.2,0
			c-0.1,0-0.1,0-0.2,0c-0.1,0-0.1-0.1-0.2-0.1c0,0-0.1-0.1-0.1-0.2c0-0.1,0-0.2,0-0.2v-1.2c0-0.1,0-0.2,0-0.2c0-0.1,0.1-0.1,0.1-0.2
			c0,0,0.1-0.1,0.2-0.1c0.1,0,0.1,0,0.2,0c0.1,0,0.1,0,0.2,0c0.1,0,0.1,0.1,0.2,0.1c0,0,0.1,0.1,0.1,0.2c0,0.1,0,0.2,0,0.2V17.1z
			 M115.6,14.2V13c0-0.1,0-0.1,0-0.2c0-0.1,0.1-0.1,0.1-0.2c0,0,0.1-0.1,0.2-0.1c0.1,0,0.1,0,0.2,0c0.1,0,0.1,0,0.2,0
			c0.1,0,0.1,0.1,0.2,0.1c0,0,0.1,0.1,0.1,0.2c0,0.1,0,0.1,0,0.2v0.1h-0.3V13c0-0.1,0-0.1,0-0.2c0,0-0.1-0.1-0.1-0.1
			c-0.1,0-0.1,0-0.1,0.1c0,0.1,0,0.1,0,0.2v1.2c0,0.1,0,0.1,0,0.2c0,0,0.1,0.1,0.1,0.1c0,0,0,0,0.1,0c0,0,0,0,0.1,0c0,0,0,0,0-0.1
			c0,0,0-0.1,0-0.1v-0.1h0.3v0.1c0,0.1,0,0.1,0,0.2c0,0.1-0.1,0.1-0.1,0.2c0,0-0.1,0.1-0.1,0.1c-0.1,0-0.1,0-0.2,0
			c-0.1,0-0.1,0-0.2,0c-0.1,0-0.1,0-0.2-0.1c0,0-0.1-0.1-0.1-0.2C115.6,14.4,115.6,14.4,115.6,14.2z M116.6,17.7h-0.9v-2.3h0.3v2
			h0.6V17.7z M117.1,14.8h-0.3v-0.3h0.3V14.8z"/>
	</g>
</g>
</svg>
