<svg xmlns="http://www.w3.org/2000/svg" viewBox="0 0 37.81 27.98"><defs><style>.cls-1{fill:#fff;}</style></defs><title>Middel 12</title><g id="Laag_2" data-name="Laag 2"><g id="Laag_1-2" data-name="Laag 1"><path class="cls-1" d="M19.84.75a1.92,1.92,0,0,1,1,.19A2.2,2.2,0,0,0,18.93,0C17.62.14,16.7,1.62,16.88,3.3a3.23,3.23,0,0,0,1.65,2.61A3.65,3.65,0,0,1,17.79,4c-.17-1.68.74-3.15,2.05-3.29"/><path class="cls-1" d="M19.37,6.1a2.1,2.1,0,0,1-.85-.19A3.76,3.76,0,0,1,17.79,4c0-.14,0-.28,0-.41A2.68,2.68,0,0,1,19.84.75H20a2,2,0,0,1,.83.19h0a3.61,3.61,0,0,1,.74,1.86c.17,1.68-.75,3.15-2.05,3.29h-.19"/><path class="cls-1" d="M18.53,5.91h0A3.68,3.68,0,0,1,17.79,4c0-.14,0-.28,0-.41,0,.13,0,.27,0,.41a3.68,3.68,0,0,0,.74,1.87m2.34-5h0m-1-.19h0m0,0h0m0,0h0"/><path class="cls-1" d="M19.05,12.19C9,12.19,1,4,.85,3,1,3.89,8.93,10.74,19,10.74c10.21,0,18.38-7.07,18.27-7.81.13.77-8,9.26-18.19,9.26"/><path class="cls-1" d="M19,10.73c10.21,0,18.38-7.07,18.27-7.8v0c-2.1,2.82-9.44,4.9-18.18,4.9S3,5.72.87,2.9L.85,3C1,3.88,8.93,10.73,19,10.73"/><path class="cls-1" d="M7.3,27.12A13.63,13.63,0,0,0,11,26.63l.18,0L11,24.38l-.28.11a8.61,8.61,0,0,1-3,.62,4.35,4.35,0,0,1-2.29-.59,3.45,3.45,0,0,1-1.25-1.37c-2-3.95,1.14-6.34,3.28-6.34a6.27,6.27,0,0,1,3.11.84l.37.2.05-.54.18-1.82-.05.51.05-.51L11,15.44a13.27,13.27,0,0,0-3.72-.64C2.79,14.8,0,17.44,0,21.08c.26,4.45,4,6,7.28,6"/><path class="cls-1" d="M23.83,23.3c.21-2.53-2.32-3.09-3.91-3.53-1.13-.32-1.84-.55-1.89-1.11a1.86,1.86,0,0,1-.05-.34c0-.64.66-1.51,2-1.51a6.53,6.53,0,0,1,2.65.54l.36.16.17-2.19L23,15.27a10.56,10.56,0,0,0-3.25-.47c-3.34,0-5.39,1.28-5.56,3.59h0c.21,2.4,2.17,3,3.76,3.47,1.27.38,1.9.65,2.08,1.39a2.27,2.27,0,0,1,0,1.17l-.1.17a.77.77,0,0,1-.22.22,2.62,2.62,0,0,1-1.48.31,7,7,0,0,1-3.29-.79l-.28-.15-.25,2.38.08,0a13.24,13.24,0,0,0,3.74.54c3.48,0,5.41-1.32,5.62-3.82"/><path class="cls-1" d="M26.56,22c0,3.25,2.05,5.11,5.62,5.11S37.8,25.26,37.8,22V15H34.08v7.31c0,1.9-.6,2.79-1.9,2.79s-1.9-.89-1.9-2.79V15H26.56Z"/><path class="cls-1" d="M11.15,26.86l0-.27Z"/><path class="cls-1" d="M7.3,28A8.85,8.85,0,0,1,3.22,27a6.58,6.58,0,0,1-.67-.4A5.94,5.94,0,0,1,0,21.44H0c0-.12,0-.23,0-.35.26,4.45,4,6,7.28,6A13.63,13.63,0,0,0,11,26.63l.18,0,0,.27,0,.58-.23,0a15.06,15.06,0,0,1-1.81.37A13.61,13.61,0,0,1,7.3,28"/><path class="cls-1" d="M4.18,23.15a5.4,5.4,0,0,1-.63-2.4,4,4,0,0,1,3.91-3.94,6.17,6.17,0,0,1,3.11.84l.37.2-.08.81-.29-.15,0,0a6.28,6.28,0,0,0-3.09-.82h-.1a3.23,3.23,0,0,0-1,.14A3.33,3.33,0,0,0,4.53,19.1l-.08.11,0,.08a3.25,3.25,0,0,0-.41.95l0,.12,0,.11a4.37,4.37,0,0,0-.1,1A3.94,3.94,0,0,0,4.13,23Z"/><path class="cls-1" d="M18,18.66a1.88,1.88,0,0,1-.05-.33v0c0-.64.68-1.49,2-1.49a6.53,6.53,0,0,1,2.65.54l.35.16-.06.83-.29-.13A6.4,6.4,0,0,0,20,17.67h-.2a2.75,2.75,0,0,0-1.5.32h0l-.05,0-.05.06,0,0-.05.06,0,0,0,.06a.78.78,0,0,0-.08.35Z"/><path class="cls-1" d="M18.21,28h-.58a12.86,12.86,0,0,1-3.16-.53l-.17-.05.09-.83.08,0a13.24,13.24,0,0,0,3.74.54c3.48,0,5.41-1.32,5.62-3.82,0,.13,0,.26,0,.4,0,2.8-2,4.28-5.64,4.28"/><path class="cls-1" d="M19.91,24.58A1,1,0,0,0,20,24.2v-.08a.86.86,0,0,0-.07-.36,1.54,1.54,0,0,0-.87-.68h0l-.07,0L18.84,23h0l-.15-.05L18,22.71h0c-1.68-.53-3.79-1.14-3.79-3.92a2.6,2.6,0,0,1,0-.4c.21,2.29,2,2.93,3.57,3.4l.19.06c1.27.39,1.91.65,2.08,1.39a2.84,2.84,0,0,1,.05.76,2.56,2.56,0,0,1-.05.27.78.78,0,0,1,0,.14Z"/><path class="cls-1" d="M19.91,24.58h0l.1-.17a.78.78,0,0,0,0-.14.88.88,0,0,1,0,.15.7.7,0,0,1-.1.16m.2-.58a2.84,2.84,0,0,0-.05-.76,2.81,2.81,0,0,1,.06.58c0,.06,0,.12,0,.18m-2.32-2.21c-1.55-.47-3.36-1.11-3.57-3.4h0c.21,2.3,2,2.94,3.57,3.41"/><path class="cls-1" d="M32.18,28c-3.57,0-5.62-1.86-5.62-5.11v-.69c.07,3.14,2.11,4.94,5.62,4.94h0c3.57,0,5.62-1.86,5.63-5.1v.85c0,3.25-2.05,5.11-5.63,5.11"/><path class="cls-1" d="M32.18,27.12c-3.51,0-5.55-1.8-5.62-4.94.07,3.14,2.11,4.94,5.62,4.94"/></g></g></svg>