<svg xmlns="http://www.w3.org/2000/svg" viewBox="0 0 122.25 15.2"><defs><style>.cls-1{fill:#fff;}</style></defs><title>Middel 9</title><g id="Laag_2" data-name="Laag 2"><g id="Laag_1-2" data-name="Laag 1"><path class="cls-1" d="M4.43,12a4.52,4.52,0,0,1-3.31-1.11A4.45,4.45,0,0,1,0,7.6,4.45,4.45,0,0,1,1.13,4.31a4.47,4.47,0,0,1,3.3-1.12h3.4V5H4.75a2.83,2.83,0,0,0-1.7.36,1.69,1.69,0,0,0-.47,1.3H7.83V8.52H2.58A1.73,1.73,0,0,0,3,9.82a2.87,2.87,0,0,0,1.71.34h3.1V12Z"/><path class="cls-1" d="M9.32,3.19h4.37a4.25,4.25,0,0,1,2.83.75,3.14,3.14,0,0,1,.85,2.48V12H15.05V6.7a1.89,1.89,0,0,0-.31-1.28,1.86,1.86,0,0,0-1.23-.29H11.64V12H9.32Z"/><path class="cls-1" d="M23.28,12A4.5,4.5,0,0,1,20,10.89,4.45,4.45,0,0,1,18.84,7.6,4.45,4.45,0,0,1,20,4.31a4.48,4.48,0,0,1,3.31-1.12h3.39V5H23.6a2.85,2.85,0,0,0-1.71.36,1.72,1.72,0,0,0-.47,1.3h5.25V8.52H21.42a1.77,1.77,0,0,0,.44,1.3,2.88,2.88,0,0,0,1.72.34h3.09V12Z"/><path class="cls-1" d="M28.16,3.19h3.91a2.89,2.89,0,0,1,1.92.5,2.22,2.22,0,0,1,.55,1.72V6.88H32.32V5.75a1,1,0,0,0-.18-.69,1.29,1.29,0,0,0-.84-.18h-.81V12H28.16Z"/><path class="cls-1" d="M40.73,10.18h1.21V5.08H40.73a8.32,8.32,0,0,0-1.22.06,2.16,2.16,0,0,0-.62.22,2,2,0,0,0-.78.87,3.23,3.23,0,0,0-.25,1.39,2.62,2.62,0,0,0,.63,2,3.35,3.35,0,0,0,2.24.57m3.55,1.5a3.77,3.77,0,0,1-.81,2.67A3.33,3.33,0,0,1,41,15.2H36.39V13.41h4.16a1.47,1.47,0,0,0,1-.33,1.17,1.17,0,0,0,.36-.93V12H40.05a7.14,7.14,0,0,1-2.12-.22A3,3,0,0,1,36.74,11a3.93,3.93,0,0,1-1-1.48,5.55,5.55,0,0,1-.34-1.93,5.44,5.44,0,0,1,.34-1.91,4,4,0,0,1,1-1.48,3.33,3.33,0,0,1,1.32-.8,6.79,6.79,0,0,1,2-.24h4.23Z"/><path class="cls-1" d="M48.66,12H46.22V3.19h2.44Zm0-9.81H46.22V0h2.44Z"/><path class="cls-1" d="M54.6,12a4.54,4.54,0,0,1-3.32-1.11A4.49,4.49,0,0,1,50.16,7.6a4.45,4.45,0,0,1,1.13-3.29A4.48,4.48,0,0,1,54.6,3.19H58V5H54.91a2.83,2.83,0,0,0-1.7.36,1.69,1.69,0,0,0-.47,1.3H58V8.52H52.74a1.73,1.73,0,0,0,.44,1.3,2.88,2.88,0,0,0,1.72.34H58V12Z"/><path class="cls-1" d="M65.32,10.12v-5H63.91a2.73,2.73,0,0,0-2,.59,2.68,2.68,0,0,0-.59,2,2.7,2.7,0,0,0,.54,1.9,2.54,2.54,0,0,0,1.86.56ZM67.63,12H63.17A4.14,4.14,0,0,1,60,10.81a4.6,4.6,0,0,1-1.14-3.32,5.13,5.13,0,0,1,.24-1.61,4.3,4.3,0,0,1,.72-1.33,3.2,3.2,0,0,1,1.37-1,6,6,0,0,1,2.12-.32h2V0h2.31Z"/><path class="cls-1" d="M72.1,12H69.66V3.19H72.1Zm0-9.81H69.66V0H72.1Z"/><path class="cls-1" d="M74.11,3.19H78a2.89,2.89,0,0,1,1.92.5,2.22,2.22,0,0,1,.55,1.72V6.88H78.27V5.75a1,1,0,0,0-.18-.69,1.29,1.29,0,0,0-.84-.18h-.81V12H74.11Z"/><path class="cls-1" d="M85.9,12a4.52,4.52,0,0,1-3.31-1.11A4.45,4.45,0,0,1,81.47,7.6a4.45,4.45,0,0,1,1.12-3.29A4.5,4.5,0,0,1,85.9,3.19h3.4V5H86.22a2.87,2.87,0,0,0-1.71.36,1.69,1.69,0,0,0-.46,1.3H89.3V8.52H84.05a1.73,1.73,0,0,0,.43,1.3,2.88,2.88,0,0,0,1.72.34h3.1V12Z"/><path class="cls-1" d="M95.58,10.12h2.48V12H94.9a6.49,6.49,0,0,1-2-.25,3.33,3.33,0,0,1-1.34-.8,4.17,4.17,0,0,1-1-1.47,5,5,0,0,1-.35-1.84,5.19,5.19,0,0,1,.35-1.91,4,4,0,0,1,1-1.48,3.55,3.55,0,0,1,1.36-.81,6.72,6.72,0,0,1,2-.25h3.16V5.1H95.58a3.39,3.39,0,0,0-2.26.56,2.62,2.62,0,0,0-.62,2A3.07,3.07,0,0,0,93,9a2,2,0,0,0,.79.86,1.59,1.59,0,0,0,.6.22,7.07,7.07,0,0,0,1.24.07"/><path class="cls-1" d="M98.72,3.19h1.64V0h2.33V3.19h2.45V5h-2.45V8.51A2.11,2.11,0,0,0,103,9.87a1.51,1.51,0,0,0,1.17.38h1V12H103a2.65,2.65,0,0,1-2-.71,2.88,2.88,0,0,1-.68-2V5H98.72Z"/><rect class="cls-1" x="106.16" y="9.91" width="2.01" height="2.09"/><path class="cls-1" d="M109.83,3.19h4.37a4.28,4.28,0,0,1,2.84.75,3.17,3.17,0,0,1,.85,2.48V12h-2.33V6.7a1.84,1.84,0,0,0-.31-1.28A1.86,1.86,0,0,0,114,5.13h-1.86V12h-2.33Z"/><rect class="cls-1" x="119.83" width="2.42" height="12"/></g></g></svg>