<svg xmlns="http://www.w3.org/2000/svg" viewBox="0 0 139.91 22.06"><defs><style>.cls-1{fill:#fff;}</style></defs><title>Middel 4</title><g id="Laag_2" data-name="Laag 2"><g id="Laag_1-2" data-name="Laag 1"><path class="cls-1" d="M4.91,11.84V7.19H2.38v4.65H0V.1H2.38V4.62H4.91V.1H7.3V11.84ZM10.35.1h2.38V11.84H10.35ZM22,10.62a3.32,3.32,0,0,1-2.82,1.32,3.32,3.32,0,0,1-2.69-1.32c-1-1.24-1-2.89-1-4.65s-.05-3.41,1-4.65A3.24,3.24,0,0,1,19.14,0c2.49,0,3.55,2,3.79,3.89h-2.4C20.34,3,20,2.57,19.14,2.57a1.11,1.11,0,0,0-.94.51c-.22.35-.35.74-.35,2.89s.13,2.55.35,2.9a1.09,1.09,0,0,0,.94.49A1.27,1.27,0,0,0,20.2,8.9a2,2,0,0,0,.37-1.25V7.49H19.14V5.08h3.8V6.71c0,1.89-.25,3-1,3.91m8.63,1.22V7.19H28.06v4.65H25.68V.1h2.38V4.62h2.53V.1H33V11.84ZM44.33,2.67v9.17H42V2.67H39.56V.1h7.15V2.67Zm4.86,9.17V.1h6.59V2.67H51.57v2h3.59V7.2H51.57V9.26h4.21v2.58Zm12.73.1a3.35,3.35,0,0,1-2.7-1.32c-1-1.24-1-2.89-1-4.65s0-3.41,1-4.65A3.33,3.33,0,0,1,61.92,0c1.83,0,3.32,1.24,3.67,3.82H63.17c-.15-.65-.45-1.25-1.24-1.25a1.1,1.1,0,0,0-.94.5c-.22.34-.37.75-.37,2.9s.15,2.55.37,2.9a1.09,1.09,0,0,0,.94.49c.79,0,1.09-.59,1.24-1.25h2.42c-.35,2.59-1.84,3.83-3.67,3.83m10.93-.1V7.19H70.32v4.65H67.93V.1h2.39V4.62h2.53V.1h2.38V11.84Zm12.91.1a3.34,3.34,0,0,1-2.7-1.32c-1-1.24-1-2.89-1-4.65s0-3.41,1-4.65A3.31,3.31,0,0,1,85.76,0c1.83,0,3.32,1.24,3.67,3.82H87c-.15-.65-.45-1.25-1.24-1.25a1.09,1.09,0,0,0-.94.5c-.22.34-.37.75-.37,2.9s.15,2.55.37,2.9a1.08,1.08,0,0,0,.94.49c.79,0,1.09-.59,1.24-1.25h2.42c-.35,2.59-1.84,3.83-3.67,3.83m11.29-.1-.44-1.75h-3l-.47,1.75H90.66L94.18.1H96l3.52,11.74ZM95.16,4.55l-.87,3.13H96Zm13.11,7.29V6.22l-1.37,2.9h-1.53L104,6.22v5.62h-2.38V.1H104l2.17,5.18L108.31.1h2.35V11.84Zm9.27-4.19h-1.45v4.19h-2.38V.1h3.83c2.15,0,3.31,1.84,3.31,3.77s-1.16,3.78-3.31,3.78m-.11-5h-1.34V5.06h1.34a1.1,1.1,0,0,0,1-1.19,1.09,1.09,0,0,0-1-1.18m9.4,9.25c-2,0-3.66-1.65-3.66-4.22V.1h2.38V7.65c0,1.09.49,1.71,1.28,1.71s1.31-.62,1.31-1.71V.1h2.38V7.72c0,2.57-1.68,4.22-3.69,4.22m9.34,0a4.27,4.27,0,0,1-3.68-1.55L134,8.54a2.8,2.8,0,0,0,2.16.82c.94,0,1.39-.37,1.39-1a1.08,1.08,0,0,0-.19-.69,1,1,0,0,0-.64-.32l-1.17-.19a3.1,3.1,0,0,1-1.95-1A3.72,3.72,0,0,1,133,3.71,3.42,3.42,0,0,1,136.49,0a3.91,3.91,0,0,1,3.27,1.4l-1.5,1.81a2.1,2.1,0,0,0-1.83-.69,1.07,1.07,0,0,0-1.17,1.09.85.85,0,0,0,.19.54,1,1,0,0,0,.66.35l1.18.2a3,3,0,0,1,1.9,1,3.86,3.86,0,0,1,.72,2.57,3.53,3.53,0,0,1-3.74,3.7"/><path class="cls-1" d="M49,22h3.1v-.58H49.51V19.25H51.7v-.57H49.51V16.55h2.57V16H49Zm4.76,0h.54V16h-.54Zm5.69-1.21L56.78,16h-.5v6h.53V17.17L59.46,22H60V16h-.53Zm5.5-4.27A1.59,1.59,0,0,0,63.67,16H62v6h1.71a1.59,1.59,0,0,0,1.26-.56,4.12,4.12,0,0,0,.49-2.53,3.7,3.7,0,0,0-.49-2.39M64.56,21a1.18,1.18,0,0,1-1,.44H62.5V16.55h1.08a1.18,1.18,0,0,1,1,.44,3.36,3.36,0,0,1,.33,1.93A3.85,3.85,0,0,1,64.56,21m5.57-2.31H67.77V16h-.53v6h.53V19.25h2.36V22h.54V16h-.54Zm4.09-2.76a1.61,1.61,0,0,0-1.27.63c-.47.57-.47,1.16-.47,2.44s0,1.88.47,2.44a1.61,1.61,0,0,0,1.27.63,1.63,1.63,0,0,0,1.28-.63C76,20.87,76,20.27,76,19s0-1.87-.47-2.44a1.63,1.63,0,0,0-1.28-.63m.86,5.13a1.1,1.1,0,0,1-.86.43,1.11,1.11,0,0,1-.86-.43c-.31-.39-.35-.8-.35-2.06s0-1.67.35-2.06a1.11,1.11,0,0,1,.86-.43,1.1,1.1,0,0,1,.86.43c.32.39.35.8.35,2.06s0,1.67-.35,2.06m3.82-.19L77.6,16H77l1.64,6h.44l1.64-6h-.57ZM82.09,22h3.1v-.58H82.62V19.25h2.19v-.57H82.62V16.55h2.57V16h-3.1ZM90,16V20.8L87.36,16h-.51v6h.54V17.17L90,22h.51V16Z"/></g></g></svg>