<svg xmlns="http://www.w3.org/2000/svg" viewBox="0 0 126.33 23.51"><defs><style>.cls-1{fill:#fff;}</style></defs><title>Middel 5</title><g id="Laag_2" data-name="Laag 2"><g id="Laag_1-2" data-name="Laag 1"><path class="cls-1" d="M0,20.13a4.49,4.49,0,0,0,2,.57c2.28,0,3.44-1.09,3.44-3.05V.47h10V17c0,4-6,6.45-11,6.45A10.44,10.44,0,0,1,0,22.57Z"/><polygon class="cls-1" points="41.79 22.99 41.79 0.45 52.28 0.45 56.83 10.22 61.89 0.45 71.37 0.45 71.37 22.99 61.41 22.99 61.41 10.01 55.27 22.99 52.05 22.99 45.93 9.81 45.93 22.99 41.79 22.99"/><path class="cls-1" d="M85,9.3a6,6,0,0,0,3-.62A3.12,3.12,0,0,0,89.54,6c0-2.1-1.32-3.41-3.81-3.41-.29,0-.47.07-.76.07Zm0,11.53a4.09,4.09,0,0,0,3.46-1.06,4.58,4.58,0,0,0,1.44-3.44,5,5,0,0,0-1.83-4A3.92,3.92,0,0,0,85,11.39ZM75,23V.47H86.08C92.16.47,97,1.52,97,6c0,2.27-1,4-4.49,4.44,4.76.63,5.31,3.16,5.29,6,0,4.15-3.5,6.65-11.66,6.65Z"/><path class="cls-1" d="M113,21.24c2.41,0,3-4,3-9.5s-.61-9.52-3-9.52-3,4-3,9.52.59,9.5,3,9.5m-13.34-9.5C99.64,5.26,105.62,0,113,0s13.35,5.26,13.35,11.74-6,11.72-13.35,11.72S99.64,18.22,99.64,11.74"/><path class="cls-1" d="M31.44,21.06c-2.07,0-2.65-2.08-2.65-3.71V.47h-10V15.61c0,5.19,3.08,7.9,9.71,7.9,7.42,0,9.63-2.66,9.63-7.9V.47H34.1V17.34c0,1.64-.57,3.72-2.66,3.72"/></g></g></svg>