<svg xmlns="http://www.w3.org/2000/svg" viewBox="0 0 78.1 21.67"><defs><style>.cls-1{fill:#fff;}</style></defs><title>Middel 14</title><g id="Laag_2" data-name="Laag 2"><g id="Laag_1-2" data-name="Laag 1"><path class="cls-1" d="M0,21.67H78.1V0H0ZM.31.31H77.79V21.36H.31Z"/><rect class="cls-1" x="4.79" y="15.77" width="6.77" height="0.31"/><rect class="cls-1" x="66.54" y="15.77" width="6.77" height="0.31"/><path class="cls-1" d="M13.57,17.39V13.76l.58-.07v.92a1.47,1.47,0,0,1,.72-.17A1,1,0,0,1,16,15.54v1.85h-.58V15.58a.58.58,0,0,0-.66-.65,1.32,1.32,0,0,0-.64.16v2.3Z"/><path class="cls-1" d="M20.77,17.46c-.58,0-.92-.3-.92-1V15h-.41v-.47h.41v-.75l.58-.06v.81h.71V15h-.71v1.47c0,.38.16.52.44.52a1.11,1.11,0,0,0,.33,0l0,.47a2,2,0,0,1-.46.06"/><path class="cls-1" d="M23.14,17.39V13.76l.57-.07v.92a1.51,1.51,0,0,1,.73-.17,1,1,0,0,1,1.15,1.1v1.85H25V15.58a.58.58,0,0,0-.65-.65,1.39,1.39,0,0,0-.65.16v2.3Z"/><path class="cls-1" d="M27.36,17.46c-.86,0-1.17-.45-1.17-1.12V14.51h.58v1.83c0,.39.17.63.6.63a1.47,1.47,0,0,0,.67-.15V14.51h.57v2.67a2.82,2.82,0,0,1-1.25.28"/><rect class="cls-1" x="29.43" y="14.51" width="0.57" height="2.88"/><path class="cls-1" d="M32.48,15.07a2.28,2.28,0,0,0-.76-.14c-.3,0-.51.1-.51.35s.22.33.55.43c.63.18,1,.38,1,.89s-.47.86-1.11.86a2.92,2.92,0,0,1-1-.18l.09-.48a2.39,2.39,0,0,0,.89.18c.34,0,.56-.14.56-.37s-.21-.33-.69-.46-.83-.36-.83-.86.39-.85,1-.85a2.25,2.25,0,0,1,.87.16Z"/><path class="cls-1" d="M35.67,16.91a5.89,5.89,0,0,0,.74-2.4H37a6.89,6.89,0,0,1-1,2.88h-.63a6.5,6.5,0,0,1-1-2.88h.58a6,6,0,0,0,.74,2.4"/><path class="cls-1" d="M39.09,16.91v-.75a2.19,2.19,0,0,0-.53-.07c-.36,0-.62.13-.62.48s.22.45.6.45a1.17,1.17,0,0,0,.55-.11m-.6.55c-.75,0-1.12-.37-1.12-.87s.47-.88,1.12-.88a3,3,0,0,1,.6.07v-.24c0-.4-.22-.61-.67-.61a2.14,2.14,0,0,0-.76.14l-.11-.46a2.57,2.57,0,0,1,.93-.17,1,1,0,0,1,1.17,1.13V17.2a2.45,2.45,0,0,1-1.16.26"/><path class="cls-1" d="M40.41,17.39V14.71a2.93,2.93,0,0,1,1.24-.27c.79,0,1.21.41,1.21,1.1v1.85h-.57V15.58a.57.57,0,0,0-.64-.65,1.56,1.56,0,0,0-.66.14v2.32Z"/><path class="cls-1" d="M46.33,15.87l1,1.52h-.64l-.76-1.2c-.16.11-.32.22-.5.32v.88h-.58V13.76l.58-.06V16a2,2,0,0,0,1.12-1.44h.56a2,2,0,0,1-.77,1.36"/><path class="cls-1" d="M48.1,15.71h1.39a.25.25,0,0,0,0-.09.63.63,0,0,0-.64-.71c-.44,0-.71.32-.76.8M50,17.26a2.43,2.43,0,0,1-1,.2A1.39,1.39,0,0,1,47.51,16a1.36,1.36,0,0,1,1.35-1.51,1.17,1.17,0,0,1,1.2,1.26,3.67,3.67,0,0,1,0,.38H48.1a.87.87,0,0,0,1,.89,2.17,2.17,0,0,0,.83-.18Z"/><path class="cls-1" d="M51.85,17.46c-.86,0-1.17-.45-1.17-1.12V14.51h.58v1.83c0,.39.17.63.6.63a1.47,1.47,0,0,0,.67-.15V14.51h.57v2.67a2.85,2.85,0,0,1-1.25.28"/><path class="cls-1" d="M55.4,15.87l1,1.52h-.64L55,16.19a4.78,4.78,0,0,1-.5.32v.88h-.57V13.76l.57-.06V16a2,2,0,0,0,1.12-1.44h.57a2,2,0,0,1-.78,1.36"/><path class="cls-1" d="M57.17,15.71h1.39a.25.25,0,0,0,0-.09.63.63,0,0,0-.64-.71c-.44,0-.71.32-.76.8m1.88,1.55a2.43,2.43,0,0,1-1,.2A1.39,1.39,0,0,1,56.58,16a1.35,1.35,0,0,1,1.35-1.51,1.17,1.17,0,0,1,1.2,1.26,3.67,3.67,0,0,1,0,.38H57.17a.87.87,0,0,0,1,.89,2.08,2.08,0,0,0,.82-.18Z"/><path class="cls-1" d="M59.75,17.39V14.71A2.93,2.93,0,0,1,61,14.44c.79,0,1.21.41,1.21,1.1v1.85h-.57V15.58a.57.57,0,0,0-.64-.65,1.64,1.64,0,0,0-.67.14v2.32Z"/><path class="cls-1" d="M64.65,15.07a2.28,2.28,0,0,0-.76-.14c-.3,0-.51.1-.51.35s.22.33.55.43c.63.18,1,.38,1,.89s-.47.86-1.11.86a2.92,2.92,0,0,1-1-.18l.09-.48a2.39,2.39,0,0,0,.89.18c.34,0,.56-.14.56-.37s-.21-.33-.69-.46-.83-.36-.83-.86.39-.85,1-.85a2.25,2.25,0,0,1,.87.16Z"/><path class="cls-1" d="M17.14,15.72h1.39v-.1a.63.63,0,0,0-.63-.71c-.45,0-.71.32-.76.81M19,17.26a2.28,2.28,0,0,1-1,.2A1.39,1.39,0,0,1,16.54,16a1.36,1.36,0,0,1,1.36-1.51,1.16,1.16,0,0,1,1.19,1.26,3.79,3.79,0,0,1,0,.38H17.13a.87.87,0,0,0,1,.89,2.17,2.17,0,0,0,.83-.18Z"/><polygon class="cls-1" points="18.04 13.6 17.68 14.17 18.16 14.17 18.64 13.6 18.04 13.6"/><polygon class="cls-1" points="7.63 3.2 9.83 3.2 10.85 8.03 13.42 3.2 15.64 3.2 15.58 12.24 13.35 12.24 13.5 7.03 13.48 7.03 10.63 12.24 9.75 12.24 8.56 7.03 8.54 7.03 7.04 12.24 4.81 12.24 7.63 3.2"/><path class="cls-1" d="M17.67,10l-.61,1.16H15.31l3.44-6.67h1.79l1.39,6.67H20.17L19.93,10Zm1.66-3.45h0l-1,2.12h1.37Z"/><polygon class="cls-1" points="23.1 4.47 24.75 4.47 27.15 8.55 27.17 8.55 27.78 4.47 29.43 4.47 28.42 11.13 26.78 11.13 24.38 7.05 24.36 7.05 23.75 11.13 22.1 11.13 23.1 4.47"/><path class="cls-1" d="M30.16,4.47H32.5A2.74,2.74,0,0,1,35.21,7.8a3.92,3.92,0,0,1-3.71,3.33H29.16ZM31,9.67h.37A2,2,0,0,0,33.5,7.8,1.45,1.45,0,0,0,32,5.94h-.39Z"/><polygon class="cls-1" points="37.57 5.94 37.4 7.05 39.26 7.05 39.04 8.52 37.18 8.52 37.01 9.67 38.96 9.67 38.74 11.13 35.14 11.13 36.14 4.47 39.74 4.47 39.52 5.94 37.57 5.94"/><polygon class="cls-1" points="41.12 4.47 42.74 4.47 43.49 8.03 45.39 4.47 47.02 4.47 46.98 11.13 45.33 11.13 45.45 7.3 45.43 7.3 43.33 11.13 42.68 11.13 41.8 7.3 41.79 7.3 40.68 11.13 39.04 11.13 41.12 4.47"/><path class="cls-1" d="M49.13,10l-.62,1.16H46.77l3.44-6.67H52l1.38,6.67H51.63L51.39,10Zm1.66-3.45h0l-1,2.12h1.37Z"/><polygon class="cls-1" points="57.88 4.47 59.92 4.47 56.93 7.63 59.14 11.13 57.01 11.13 55.32 8.24 55.3 8.24 54.87 11.13 53.22 11.13 54.23 4.47 55.87 4.47 55.46 7.22 55.48 7.22 57.88 4.47"/><polygon class="cls-1" points="61.51 5.94 61.34 7.05 63.2 7.05 62.98 8.52 61.12 8.52 60.95 9.67 62.91 9.67 62.69 11.13 59.08 11.13 60.09 4.47 63.69 4.47 63.47 5.94 61.51 5.94"/><path class="cls-1" d="M68.46,11.13h-2L65.25,8.57h0l-.39,2.56H63.2l1-6.66h2.46c1.25,0,2.11.63,1.89,2.05A2.13,2.13,0,0,1,66.88,8.4ZM65.4,7.46h.15c.54,0,1.16-.11,1.27-.83s-.48-.84-1-.84h-.16Z"/><path class="cls-1" d="M72.46,6.18a1.5,1.5,0,0,0-1-.44.79.79,0,0,0-.79.56c-.06.39.37.54.64.63l.4.14c.84.27,1.45.74,1.28,1.82A2.72,2.72,0,0,1,72,10.68a3,3,0,0,1-1.89.63A3.26,3.26,0,0,1,68,10.55L69,9.15a1.85,1.85,0,0,0,1.36.69.85.85,0,0,0,.9-.67c.07-.48-.55-.65-.89-.76-1-.31-1.62-.59-1.43-1.88a2.54,2.54,0,0,1,2.52-2.24,3.76,3.76,0,0,1,1.9.55Z"/></g></g></svg>