<svg xmlns="http://www.w3.org/2000/svg" viewBox="0 0 134.31 24.63"><defs><style>.cls-1{fill:#fff;}</style></defs><title>Middel 6</title><g id="Laag_2" data-name="Laag 2"><g id="Laag_1-2" data-name="Laag 1"><path class="cls-1" d="M13.64,9.1c0,3.07-1.48,5.14-5.24,5.14H7.21V4.47c.42,0,.82,0,1.19,0,3.56,0,5.24,1.68,5.24,4.65M9.79,18.49c6.71,0,11-3.46,11-9.49,0-6.62-4.55-9-12-9A80.31,80.31,0,0,0,0,.5V24.13H7.21V18.49ZM106.44,9.1c0,3.07-1.48,5.14-5.24,5.14H100V4.47c.42,0,.81,0,1.18,0,3.56,0,5.24,1.68,5.24,4.65m-3.85,9.39c6.72,0,11-3.46,11-9.49,0-6.62-4.54-9-12-9A80.31,80.31,0,0,0,92.8.5V24.13H100V18.49Zm20.35-12c0-1.29,1.28-1.88,3.37-1.88a18,18,0,0,1,6.42,1.19L132.14.69A28.6,28.6,0,0,0,125.51,0c-5.83,0-9.78,2.3-9.78,7.12,0,8.31,11.27,6.63,11.27,10.48,0,1.49-1.09,2.28-3.76,2.28A21.47,21.47,0,0,1,115,18l.79,5.44a23.9,23.9,0,0,0,7.51,1.19c6,0,11-2,11-7.92,0-7.91-11.37-6.42-11.37-10.18M87.37.5H80.15V24.13h7.22ZM58.11.5H50.9V24.13h7.21ZM70.66,19.38V.5H63.45V24.13h13l1.09-4.75ZM45.56.5H38.35V9.89H30.84V.5H23.62V24.13h7.22V14.84h7.51v9.29h7.21Z"/></g></g></svg>