<?xml version="1.0" encoding="utf-8"?>
<!-- Generator: Adobe Illustrator 24.1.0, SVG Export Plug-In . SVG Version: 6.00 Build 0)  -->
<svg version="1.1" id="Laag_1" xmlns="http://www.w3.org/2000/svg" xmlns:xlink="http://www.w3.org/1999/xlink" x="0px" y="0px"
	 viewBox="0 0 44.88 34.94" style="enable-background:new 0 0 44.88 34.94;" xml:space="preserve">
<style type="text/css">
	.st0{fill:#FFFFFF;}
</style>
<g>
	<path class="st0" d="M4.24,0.15C3.96,0.19,3.68,1.26,3.12,1.81c-0.41,0.4-0.91,0.37-1.18,0.87c-0.1,0.19-0.07,0.5-0.18,0.79
		C1.52,4.08,0.73,4.14,0.72,4.79c0,0.72,0.67,0.85,1.25,1.35c0.46,0.4,0.5,0.68,1.04,0.87c0.48,0.17,1.18-0.35,1.8-0.17
		c0.52,0.16,1.01,0.26,1.13,0.8c0.1,0.49,0,1.25-0.64,1.16C5.09,8.78,4.18,8.48,3.06,8.6C1.7,8.75,0.16,9.19,0,10.7
		c-0.08,0.84,0.96,1.84,1.98,1.64c0.69-0.14,0.36-0.96,0.74-1.36c0.5-0.51,3.32,1.78,5.93,1.78c1.11,0,1.93-0.28,2.74-1.14
		c0.07-0.06,0.18-0.19,0.29-0.21c0.11,0.01,0.3,0.12,0.36,0.17c2.12,1.69,3.71,5.1,11.47,5.14c1.08,0.01,2.33,0.52,3.35,1.46
		c0.9,0.82,1.43,2.13,1.94,3.45c0.78,1.99,2.17,3.91,4.29,6.05c0.11,0.13,1.85,1.47,1.98,1.57c0.03,0.02,0.16,0.31,0.1,0.48
		c-0.04,1.3-0.23,5.04,2.55,5.2c0.68,0.04,0.51-0.44,0.51-0.78c-0.01-0.64-0.12-1.29,0.21-1.96c0.48-0.9-0.98-1.34-0.95-3.31
		c0.03-1.48-1.21-1.23-1.84-2.36c-0.36-0.65-0.69-1.01-0.65-1.79c0.13-4.5-0.97-7.46-1.51-8.17c-0.43-0.55-0.8-0.75-0.39-1.02
		c2.33-1.54,2.85-2.97,2.85-2.97c1.24-2.91,2.35-5.56,3.88-6.74c0.31-0.23,1.1-0.83,1.6-1.06c1.43-0.68,2.19-1.09,2.6-1.49
		c0.66-0.63,1.19-1.99,0.55-2.79c-0.78-1.01-2.14-0.2-2.74,0.15c-4.27,2.54-4.9,7.02-6.39,9.59c-1.17,2.06-3.09,3.57-4.82,3.69
		c-1.29,0.09-2.67-0.16-4.06-0.77c-3.38-1.48-5.2-3.39-5.64-3.72c-0.91-0.7-7.91-7.58-13.61-7.86c0,0-0.7-1.42-0.87-1.44
		C6.04,0.08,5.61,0.98,5.3,1.07C5.02,1.17,4.53,0.1,4.24,0.15"/>
</g>
</svg>
