<?xml version="1.0" encoding="utf-8"?>
<!-- Generator: Adobe Illustrator 24.1.0, SVG Export Plug-In . SVG Version: 6.00 Build 0)  -->
<svg version="1.1" id="Laag_1" xmlns="http://www.w3.org/2000/svg" xmlns:xlink="http://www.w3.org/1999/xlink" x="0px" y="0px"
	 viewBox="0 0 106.33 41.95" style="enable-background:new 0 0 106.33 41.95;" xml:space="preserve">
<style type="text/css">
	.st0{fill:#FFFFFF;}
</style>
<g>
	<path class="st0" d="M37.24,19.74v4.13c0,0.12,0.02,0.14,0.14,0.2l0.92,0.46v0.02h-2.85v-0.02l0.7-0.41
		c0.11-0.06,0.11-0.11,0.11-0.22v-4.16h-0.72v-0.18h0.72v-0.38c0-1.4,0.53-1.94,1.64-1.94c0.44,0,0.9,0.1,1.3,0.27l-0.52,1.25h-0.02
		l-0.5-1.23c-0.05-0.13-0.06-0.13-0.25-0.13c-0.46,0-0.68,0.38-0.68,1.2v0.97h1.5v0.18H37.24z"/>
	<path class="st0" d="M39.91,23.17c0,0.54,0.34,0.89,0.78,0.89c0.36,0,0.71-0.23,0.92-0.59v-0.03l0.02-1.26
		c-0.21-0.07-0.4-0.1-0.6-0.1C40.3,22.07,39.91,22.6,39.91,23.17 M41.65,21.02v-0.03c0-0.78-0.35-1.35-1.1-1.35
		c-0.26,0-0.28,0-0.34,0.14l-0.63,1.35h-0.02l-0.46-1.33c0.58-0.24,1.14-0.34,1.72-0.34c0.6,0,1.01,0.09,1.3,0.4
		c0.29,0.3,0.46,0.81,0.46,1.68v0.14l-0.04,1.67c-0.01,0.44,0.09,0.69,0.37,0.69c0.18,0,0.29-0.11,0.34-0.3h0.02
		c0,0.1-0.02,0.22-0.06,0.32c-0.11,0.3-0.39,0.55-0.79,0.55c-0.45,0-0.82-0.34-0.82-1.09c-0.21,0.69-0.72,1.09-1.38,1.09
		c-0.71,0-1.34-0.48-1.34-1.34c0-1,0.84-1.5,1.66-1.5c0.36,0,0.76,0.09,1.07,0.32L41.65,21.02z"/>
	<path class="st0" d="M48.27,23.9c0,0.12,0.01,0.16,0.12,0.23l0.7,0.41v0.02h-2.6v-0.02l0.66-0.41c0.11-0.07,0.13-0.13,0.13-0.2
		c0-0.07,0.03-1.64,0.03-2.06c0-1.25-0.28-1.78-0.88-1.78c-0.47,0-0.84,0.31-1.08,0.76v3.07c0,0.11,0,0.14,0.12,0.22l0.69,0.42v0.02
		h-2.6v-0.02l0.7-0.41c0.11-0.06,0.11-0.11,0.11-0.23v-3.57c0-0.13-0.01-0.16-0.11-0.24l-0.7-0.51v-0.02h1.79v1.21
		c0.25-0.89,0.78-1.29,1.52-1.29c0.71,0,1.18,0.4,1.35,1.27c0.24-0.82,0.82-1.27,1.6-1.27c0.87,0,1.4,0.64,1.4,2.05
		c0,0.61-0.01,1.55-0.02,2.37c0,0.12,0.01,0.16,0.12,0.23l0.7,0.41v0.02h-2.6v-0.02l0.66-0.41c0.11-0.07,0.13-0.13,0.13-0.2
		c0-0.08,0.03-1.63,0.03-2.04c0-1.24-0.26-1.81-0.89-1.81c-0.46,0-0.83,0.26-1.12,0.73c0.04,0.22,0.06,0.46,0.06,0.73
		C48.29,22.03,48.28,23.08,48.27,23.9"/>
	<path class="st0" d="M52.9,18.18c0-0.35,0.27-0.63,0.61-0.63c0.35,0,0.62,0.28,0.62,0.63c0,0.33-0.27,0.61-0.62,0.61
		C53.17,18.79,52.9,18.51,52.9,18.18 M54.07,19.56v4.34c0,0.11,0,0.14,0.12,0.22l0.69,0.42v0.02h-2.6v-0.02l0.7-0.41
		c0.11-0.06,0.11-0.11,0.11-0.23v-3.57c0-0.13-0.01-0.16-0.11-0.24l-0.7-0.51v-0.02H54.07z"/>
	<path class="st0" d="M56.83,23.9c0,0.11,0,0.14,0.12,0.22l0.69,0.42v0.02h-2.6v-0.02l0.7-0.41c0.11-0.06,0.11-0.11,0.11-0.23v-5.89
		c0-0.13-0.01-0.18-0.11-0.24l-0.7-0.41v-0.02l1.79-0.21V23.9z"/>
	<path class="st0" d="M57.86,26.87l0.36-1.55h0.02l0.59,1.03c0.05,0.08,0.07,0.12,0.12,0.12c0.04,0,0.08-0.04,0.12-0.09
		c0.25-0.3,0.49-0.83,0.63-1.2l0.13-0.37l-1.78-4.55c-0.08-0.19-0.12-0.26-0.19-0.35l-0.26-0.34v-0.02h2.03v0.02l-0.49,0.47
		c-0.08,0.07-0.09,0.11-0.04,0.25l1.23,3.18l1.1-2.86c0.06-0.16,0.06-0.19-0.03-0.31l-0.62-0.73v-0.02h1.67v0.02l-0.58,0.71
		c-0.09,0.1-0.12,0.16-0.19,0.35l-1.74,4.58c-0.15,0.4-0.3,0.74-0.51,1.08c-0.3,0.47-0.64,0.69-1.07,0.69
		C58.19,26.98,57.97,26.94,57.86,26.87"/>
	<path class="st0" d="M65.83,20.7v3.18c0.25,0.3,0.61,0.38,0.9,0.38c0.84,0,1.36-0.73,1.36-2.18c0-1.36-0.44-2.09-1.16-2.09
		C66.54,19.99,66.15,20.21,65.83,20.7 M65.83,20.6c0.33-0.72,0.8-1.13,1.53-1.13c1.12,0,1.78,0.98,1.78,2.45
		c0,1.53-0.72,2.71-2.01,2.71c-0.71,0-1.13-0.34-1.3-0.66l-0.94,0.66h-0.02v-6.63c0-0.13-0.01-0.18-0.11-0.24l-0.7-0.41v-0.02
		l1.79-0.2V20.6z"/>
	<path class="st0" d="M71.45,23.87c0,0.11,0,0.16,0.13,0.22l1.09,0.45v0.02h-3.01v-0.02l0.7-0.41c0.11-0.06,0.11-0.11,0.11-0.23
		v-3.57c0-0.13-0.01-0.16-0.11-0.24l-0.7-0.51v-0.02h1.79v1.57c0.13-0.7,0.67-1.65,1.61-1.65c0.21,0,0.37,0.04,0.5,0.12l-0.51,1.52
		h-0.02l-0.51-1.14c-0.02-0.04-0.07-0.04-0.12-0.01c-0.48,0.28-0.72,0.79-0.94,1.26V23.87z"/>
	<path class="st0" d="M74.83,21.46h2.11v-0.02c0-1.14-0.27-1.81-0.94-1.81C75.31,19.63,74.91,20.35,74.83,21.46 M74.82,21.63v0.29
		c0,1.39,0.65,2.14,1.49,2.14c0.71,0,1.26-0.35,1.63-1.26l0.02,0.01c-0.22,1.23-0.92,1.84-1.99,1.84c-1.12,0-2.13-0.77-2.13-2.53
		c0-1.95,1.19-2.63,2.18-2.63s1.93,0.59,1.93,1.89c0,0.09-0.01,0.18-0.02,0.27H74.82z"/>
	<path class="st0" d="M85.18,20.29c-0.1,0.12-0.12,0.15-0.17,0.31l-1.43,3.96h-0.55l-1.11-3.01l-1.12,3.01h-0.55l-1.58-4.29
		c-0.05-0.14-0.07-0.19-0.15-0.29l-0.32-0.4v-0.02h2.05v0.02l-0.49,0.47c-0.08,0.07-0.09,0.11-0.04,0.25l1.18,3.26l0.89-2.37
		l-0.34-0.92c-0.05-0.14-0.07-0.19-0.15-0.29l-0.32-0.4v-0.02h2.04v0.02l-0.49,0.47c-0.08,0.07-0.09,0.11-0.04,0.25l1.19,3.26
		l1.07-2.98c0.06-0.17,0.04-0.19-0.06-0.32l-0.58-0.69v-0.02h1.67v0.02L85.18,20.29z"/>
	<path class="st0" d="M86.74,21.46h2.11v-0.02c0-1.14-0.27-1.81-0.94-1.81C87.23,19.63,86.83,20.35,86.74,21.46 M86.73,21.63v0.29
		c0,1.39,0.65,2.14,1.49,2.14c0.71,0,1.26-0.35,1.63-1.26l0.02,0.01c-0.22,1.23-0.92,1.84-1.99,1.84c-1.12,0-2.13-0.77-2.13-2.53
		c0-1.95,1.19-2.63,2.18-2.63c0.99,0,1.93,0.59,1.93,1.89c0,0.09-0.01,0.18-0.02,0.27H86.73z"/>
	<path class="st0" d="M92.16,23.87c0,0.11,0,0.16,0.13,0.22l1.09,0.45v0.02h-3.01v-0.02l0.7-0.41c0.11-0.06,0.11-0.11,0.11-0.23
		v-3.57c0-0.13-0.01-0.16-0.11-0.24l-0.7-0.51v-0.02h1.79v1.57c0.13-0.7,0.67-1.65,1.61-1.65c0.21,0,0.37,0.04,0.5,0.12l-0.51,1.52
		h-0.02l-0.51-1.14c-0.02-0.04-0.07-0.04-0.12-0.01c-0.48,0.28-0.72,0.79-0.94,1.26V23.87z"/>
	<path class="st0" d="M96.34,22.54l-0.64-0.29c-0.54-0.25-0.96-0.67-0.96-1.35c0-0.91,0.85-1.44,1.7-1.44
		c0.53,0,1.05,0.07,1.55,0.26l-0.39,1.3h-0.02l-0.66-1.25c-0.06-0.11-0.07-0.12-0.23-0.14c-0.09-0.01-0.18-0.01-0.27-0.01
		c-0.48,0-0.91,0.32-0.91,0.9c0,0.5,0.36,0.71,0.79,0.89l0.69,0.3c0.6,0.26,1.17,0.59,1.17,1.36c0,1.04-0.94,1.55-1.94,1.55
		c-0.49,0-1.12-0.12-1.61-0.31l0.43-1.43h0.02l0.57,1.42c0.04,0.09,0.05,0.1,0.19,0.13c0.12,0.02,0.25,0.03,0.41,0.03
		c0.71,0,1.05-0.47,1.05-0.95C97.29,22.96,96.84,22.77,96.34,22.54"/>
	<path class="st0" d="M14.1,41.95V8.33H0v18.65C0,34.96,6.23,41.49,14.1,41.95 M11.74,30.8c-1.03-0.28-1.95-0.65-2.72-1.09
		c0.22-0.52,0.37-1.05,0.42-1.59c0.67,0.27,1.46,0.49,2.33,0.65l-0.01,0.01C11.78,29.25,11.77,30.12,11.74,30.8 M10.28,33.42
		c-0.98-0.57-1.81-1.19-2.46-1.84c0.37-0.42,0.67-0.85,0.92-1.29c0.58,0.33,1.24,0.62,1.95,0.86c0,0.02,0,0.04-0.01,0.06
		c-0.06,0.51-0.15,1.05-0.28,1.63C10.36,33.05,10.32,33.24,10.28,33.42 M7.37,31.1c-0.89-1.03-1.38-2.14-1.43-3.28
		c0.61-0.31,1.1-0.67,1.43-1.06c0.33,0.39,0.82,0.75,1.43,1.07C8.75,28.96,8.26,30.07,7.37,31.1 M5.62,33.47
		c0.67-0.45,1.25-0.92,1.75-1.41c0.5,0.49,1.08,0.96,1.75,1.41c-0.38,0.84-1.04,1.69-1.75,2.52C6.66,35.15,6,34.3,5.62,33.47
		 M4.06,31.15c0.72-0.25,1.37-0.54,1.95-0.86c0.24,0.44,0.55,0.87,0.92,1.29c-0.66,0.65-1.48,1.28-2.46,1.84
		c-0.04-0.18-0.08-0.38-0.12-0.58c-0.13-0.57-0.23-1.12-0.28-1.63C4.06,31.19,4.06,31.17,4.06,31.15 M2.99,28.78l-0.01-0.01
		c0.87-0.16,1.65-0.38,2.33-0.65c0.05,0.54,0.2,1.07,0.42,1.59c-0.77,0.44-1.69,0.81-2.72,1.09C2.97,30.12,2.96,29.25,2.99,28.78
		 M12.24,28.19c-2.31-0.37-4.08-1.18-4.58-2.15l-0.29-0.55l-0.29,0.55c-0.51,0.98-2.28,1.79-4.58,2.15c0.47-2.81,1.2-4.79,4.4-4.79
		c0.01,0,0.03,0,0.05,0v-1.4c0-0.2,0.17-0.37,0.37-0.37h0.1c0.21,0,0.37,0.17,0.37,0.37v1.4c0.01,0,0.03,0,0.05,0
		C11.04,23.41,11.77,25.38,12.24,28.19"/>
	<path class="st0" d="M30,26.98V8.33h-14.1v33.63C23.77,41.49,30,34.96,30,26.98 M21,13.96c0,1.18,0.9,1.71,2.34,2.41l0.68,0.33
		c1.95,0.94,3.59,1.82,3.59,4c0,2.5-2.04,4.2-5.16,4.2c-1.11,0-2.63-0.18-3.78-0.52v-4.4h0.04l2.43,4.2
		c0.13,0.22,0.18,0.29,0.4,0.33c0.28,0.04,0.54,0.04,0.77,0.04c1.49,0,2.51-0.76,2.51-2.12c0-1.23-0.87-1.79-2.54-2.58l-0.57-0.28
		c-1.64-0.77-3.43-1.84-3.43-4.14c0-2.34,1.88-3.85,4.79-3.85c0.96,0,2.25,0.11,3.54,0.42v4.2h-0.04l-2.49-3.98
		c-0.13-0.18-0.18-0.22-0.37-0.26c-0.2-0.04-0.37-0.04-0.53-0.04C21.91,11.93,21,12.67,21,13.96"/>
	<path class="st0" d="M38.29,11.87h0.52c0.71,0,1.17-0.47,1.17-1.65c0-1.22-0.42-1.72-1.13-1.72h-0.38c-0.15,0-0.18,0.02-0.18,0.19
		V11.87z M38.29,12.08v2.42c0,0.13,0.01,0.16,0.1,0.24l0.68,0.62v0.02H35.7v-0.02l0.68-0.64c0.08-0.08,0.09-0.11,0.09-0.24V9.19
		c0-0.13-0.01-0.16-0.09-0.24L35.7,8.31V8.29h3.89c1.24,0,2.34,0.49,2.34,1.81c0,1.08-0.82,1.74-2.21,1.85v0.02l1.3,0.38l0.92,2.18
		c0.06,0.15,0.13,0.24,0.27,0.38l0.43,0.44v0.02h-2.36l-1.25-3.19c-0.04-0.08-0.07-0.12-0.22-0.12H38.29z"/>
	<path class="st0" d="M44.67,12.88c0,1.95,0.31,2.4,0.82,2.4c0.5,0,0.82-0.43,0.82-2.39c0-1.95-0.31-2.39-0.82-2.39
		C44.98,10.5,44.67,10.93,44.67,12.88 M42.84,12.88c0-1.69,1.06-2.57,2.65-2.57c1.59,0,2.66,0.87,2.66,2.58
		c0,1.69-1.07,2.57-2.66,2.57C43.89,15.46,42.84,14.6,42.84,12.88"/>
	<path class="st0" d="M51.34,15.19c-0.23,0.55-0.53,1.15-0.87,1.67c-0.41,0.64-0.8,0.9-1.4,0.9c-0.15,0-0.31-0.03-0.47-0.1
		l0.37-1.76h0.02l1,0.99c0.05,0.05,0.08,0.08,0.12,0.08c0.05,0,0.09-0.03,0.15-0.12c0.13-0.18,0.28-0.46,0.38-0.7l0.06-0.16
		l-1.88-4.76c-0.05-0.13-0.1-0.23-0.15-0.33l-0.27-0.48v-0.02h2.61v0.02l-0.4,0.55c-0.05,0.07-0.07,0.11-0.02,0.23l1.02,2.82
		l0.82-1.99c0.07-0.17,0.08-0.21,0-0.37l-0.61-1.25v-0.02h1.72v0.02l-0.65,1.13c-0.12,0.2-0.17,0.32-0.25,0.52L51.34,15.19z"/>
	<path class="st0" d="M55.25,13.87c0,0.56,0.25,0.86,0.6,0.86c0.22,0,0.44-0.15,0.57-0.35v-0.01l0.02-1.47
		c-0.12-0.04-0.24-0.06-0.37-0.06C55.54,12.83,55.25,13.29,55.25,13.87 M58.07,12.71l-0.06,1.43c-0.02,0.39,0.07,0.58,0.27,0.58
		c0.13,0,0.22-0.06,0.28-0.18h0.02c0,0.09-0.02,0.24-0.08,0.36c-0.16,0.33-0.51,0.56-0.99,0.56c-0.57,0-1.07-0.34-1.1-0.98
		c-0.2,0.58-0.72,0.98-1.37,0.98c-0.74,0-1.37-0.49-1.37-1.42c0-1,0.87-1.52,1.69-1.52c0.43,0,0.8,0.08,1.07,0.27l0.02-1.08v-0.05
		c0-0.7-0.21-1.16-0.74-1.16c-0.2,0-0.21,0.01-0.27,0.12l-0.82,1.51h-0.02l-0.63-1.44c0.67-0.24,1.39-0.38,2.04-0.38
		c0.68,0,1.2,0.12,1.56,0.46c0.32,0.3,0.51,0.8,0.51,1.57C58.08,12.45,58.07,12.68,58.07,12.71"/>
	<path class="st0" d="M61.18,14.66c0,0.13,0.01,0.16,0.1,0.24l0.49,0.46v0.02h-2.82v-0.02l0.49-0.46c0.08-0.08,0.09-0.11,0.09-0.24
		V9.03c0-0.13-0.01-0.17-0.09-0.25l-0.49-0.46V8.29l2.23-0.26V14.66z"/>
	<path class="st0" d="M66.92,15.48c-0.61,0-1.44-0.1-2.07-0.28v-2.41h0.02l1.33,2.3c0.07,0.12,0.1,0.16,0.22,0.18
		c0.15,0.02,0.29,0.02,0.42,0.02c0.82,0,1.37-0.41,1.37-1.16c0-0.67-0.47-0.98-1.39-1.41l-0.31-0.15c-0.9-0.42-1.88-1.01-1.88-2.27
		c0-1.28,1.03-2.11,2.62-2.11c0.52,0,1.23,0.06,1.94,0.23v2.3h-0.02l-1.36-2.18c-0.07-0.1-0.1-0.12-0.2-0.14
		c-0.11-0.02-0.2-0.02-0.29-0.02c-0.71,0-1.2,0.4-1.2,1.11c0,0.64,0.49,0.94,1.28,1.32L67.77,11c1.07,0.51,1.97,1,1.97,2.19
		C69.74,14.56,68.62,15.48,66.92,15.48"/>
	<path class="st0" d="M77.34,11.59c-0.12,0.2-0.16,0.27-0.22,0.45l-1.15,3.34h-1.13l-0.97-2.8l-0.97,2.8h-1.14l-1.3-3.83
		c-0.08-0.23-0.12-0.36-0.21-0.53l-0.31-0.6v-0.02h2.51v0.02l-0.34,0.57c-0.06,0.1-0.07,0.13-0.03,0.25l1,3.06l0.7-2.02l-0.24-0.73
		c-0.08-0.24-0.12-0.35-0.21-0.53l-0.31-0.6v-0.02h2.51v0.02l-0.34,0.57c-0.06,0.1-0.07,0.13-0.03,0.25l1.01,3.05l0.77-2.27
		c0.07-0.19,0.05-0.22-0.03-0.38l-0.58-1.22v-0.02h1.72v0.02L77.34,11.59z"/>
	<path class="st0" d="M78.8,9.09c0-0.48,0.37-0.79,0.81-0.79c0.45,0,0.82,0.3,0.82,0.79c0,0.45-0.36,0.75-0.82,0.75
		C79.18,9.84,78.8,9.54,78.8,9.09 M80.47,10.39v4.27c0,0.13,0,0.16,0.09,0.24l0.49,0.46v0.02h-2.82v-0.02l0.49-0.46
		c0.09-0.08,0.09-0.11,0.09-0.24v-3.49c0-0.13-0.01-0.16-0.09-0.25l-0.49-0.5v-0.02H80.47z"/>
	<path class="st0" d="M86.94,14.66c0,0.13,0.01,0.16,0.09,0.24l0.5,0.46v0.02H84.7v-0.02l0.48-0.46c0.08-0.08,0.09-0.12,0.09-0.23
		c0-0.15,0.03-1.51,0.03-2c0-0.92-0.14-1.52-0.77-1.52c-0.32,0-0.56,0.18-0.75,0.44v3.06c0,0.13,0,0.16,0.09,0.24l0.49,0.46v0.02
		h-2.82v-0.02l0.49-0.46c0.09-0.08,0.09-0.11,0.09-0.24v-3.49c0-0.13-0.01-0.16-0.09-0.25l-0.49-0.5v-0.02h2.24v1.07
		c0.25-0.71,0.79-1.15,1.6-1.15c1.01,0,1.57,0.74,1.57,2.13C86.97,13.06,86.95,13.86,86.94,14.66"/>
	<path class="st0" d="M92.97,14.66c0.07,0.13,0.14,0.22,0.23,0.31l0.42,0.39v0.02h-2.14L90.37,13c-0.04-0.09-0.11-0.12-0.18-0.12
		c-0.03,0-0.07,0.01-0.11,0.04v1.73c0,0.13,0.01,0.16,0.1,0.24l0.49,0.46v0.02h-2.82v-0.02l0.49-0.46c0.08-0.08,0.09-0.11,0.09-0.24
		V9.03c0-0.13-0.01-0.17-0.09-0.25l-0.49-0.46V8.29l2.23-0.26v4.78l1.63-1.22c0.08-0.06,0.08-0.12,0.02-0.2l-0.69-0.98v-0.02h2.47
		v0.02l-1.85,1.4c-0.08,0.06-0.09,0.09-0.05,0.18L92.97,14.66z"/>
	<path class="st0" d="M95.38,12.48h1.48c0.01-0.13,0.01-0.26,0.01-0.3c0-1.32-0.27-1.67-0.69-1.67
		C95.69,10.5,95.4,11.02,95.38,12.48 M95.38,12.66v0.02c0,1.31,0.67,1.85,1.44,1.85c0.61,0,1.2-0.26,1.53-0.93h0.02
		c-0.26,1.27-1.05,1.86-2.23,1.86c-1.27,0-2.47-0.77-2.47-2.54c0-1.86,1.19-2.61,2.53-2.61c1.07,0,2.21,0.5,2.21,2.13
		c0,0.03,0,0.1-0.01,0.22H95.38z"/>
	<path class="st0" d="M101.1,14.66c0,0.13,0.01,0.16,0.1,0.24l0.49,0.46v0.02h-2.82v-0.02l0.5-0.46c0.08-0.08,0.09-0.11,0.09-0.24
		V9.03c0-0.13-0.01-0.17-0.09-0.25l-0.5-0.46V8.29l2.23-0.26V14.66z"/>
	<path class="st0" d="M104.02,13.66l-0.69-0.32c-0.55-0.26-0.98-0.71-0.98-1.43c0-0.96,0.79-1.59,2.07-1.59
		c0.49,0,1.12,0.07,1.77,0.27l-0.56,1.46h-0.02l-0.79-1.4c-0.06-0.1-0.09-0.15-0.23-0.15h-0.14c-0.44,0-0.82,0.23-0.82,0.71
		c0,0.44,0.33,0.66,0.93,0.92l0.64,0.28c0.62,0.27,1.12,0.61,1.12,1.39c0,1.09-0.92,1.67-2.26,1.67c-0.57,0-1.28-0.11-1.85-0.31
		l0.56-1.56h0.02l0.81,1.56c0.04,0.08,0.1,0.13,0.21,0.13h0.23c0.58,0,0.95-0.3,0.95-0.74C104.99,14.13,104.68,13.96,104.02,13.66"
		/>
</g>
<rect x="18.19" y="0.96" transform="matrix(0.7071 -0.7071 0.7071 0.7071 4.1928 14.2461)" class="st0" width="2.21" height="2.21"/>
<rect x="13.54" y="0.6" transform="matrix(0.7071 -0.7071 0.7071 0.7071 2.9359 11.2119)" class="st0" width="2.92" height="2.92"/>
<rect x="21.87" y="1.22" transform="matrix(0.7071 -0.7071 0.7071 0.7071 5.1947 16.6648)" class="st0" width="1.69" height="1.69"/>
<rect x="9.61" y="0.96" transform="matrix(0.7071 -0.7071 0.7071 0.7071 1.6791 8.1776)" class="st0" width="2.21" height="2.21"/>
<rect x="6.1" y="5.07" class="st0" width="17.81" height="1.45"/>
<rect x="6.45" y="1.22" transform="matrix(0.7071 -0.7071 0.7071 0.7071 0.6773 5.7589)" class="st0" width="1.69" height="1.69"/>
</svg>
