<?xml version="1.0" encoding="utf-8"?>
<!-- Generator: Adobe Illustrator 24.1.0, SVG Export Plug-In . SVG Version: 6.00 Build 0)  -->
<svg version="1.1" id="Laag_1" xmlns="http://www.w3.org/2000/svg" xmlns:xlink="http://www.w3.org/1999/xlink" x="0px" y="0px"
	 viewBox="0 0 56.74 26.43" style="enable-background:new 0 0 56.74 26.43;" xml:space="preserve">
<style type="text/css">
	.st0{fill:#FFFFFF;}
	.st1{clip-path:url(#SVGID_2_);fill:#FFFFFF;}
</style>
<polygon class="st0" points="0,5.82 0,9.96 3.6,9.96 3.6,26.43 7.98,26.43 7.98,9.96 11.61,9.96 11.61,5.82 "/>
<path class="st0" d="M45.16,9.96h3.32v12.33h-3.32V9.96z M43.1,5.82l-2.34,2.34v15.98l2.32,2.29h7.49l2.34-2.29V8.16l-2.34-2.34
	H43.1z"/>
<polygon class="st0" points="27.35,5.82 27.35,9.96 30.96,9.96 30.96,26.43 35.33,26.43 35.33,9.96 38.96,9.96 38.96,5.82 "/>
<polygon class="st0" points="25.37,0.01 29.18,3.81 37.11,3.81 40.92,0 "/>
<path class="st0" d="M17.81,9.96h3.32v12.33h-3.32V9.96z M15.74,5.82l-2.34,2.34v7.96v7.96l2.34,2.34h7.46l2.34-2.34v-7.96V8.16
	L23.2,5.82H15.74z"/>
<g>
	<defs>
		<rect id="SVGID_1_" y="0" width="56.74" height="26.43"/>
	</defs>
	<clipPath id="SVGID_2_">
		<use xlink:href="#SVGID_1_"  style="overflow:visible;"/>
	</clipPath>
	<path class="st1" d="M55.31,8.38c-0.62,0-1.12-0.5-1.12-1.12c0-0.62,0.5-1.12,1.12-1.12c0.61,0,1.12,0.5,1.12,1.12
		C56.44,7.89,55.93,8.38,55.31,8.38 M55.32,5.86c-0.78,0-1.43,0.63-1.43,1.41c0,0.78,0.65,1.41,1.43,1.41
		c0.78,0,1.42-0.63,1.42-1.41C56.74,6.48,56.09,5.86,55.32,5.86"/>
</g>
<path class="st0" d="M55.2,6.79h0.23v0.34H55.2V6.79z M54.89,6.53v1.47h0.31V7.38h0.24v0.62h0.3V7.38l-0.13-0.13l0.13-0.13V6.69
	l-0.16-0.16H54.89z"/>
</svg>
