<?xml version="1.0" encoding="utf-8"?>
<!-- Generator: Adobe Illustrator 24.1.0, SVG Export Plug-In . SVG Version: 6.00 Build 0)  -->
<svg version="1.1" id="Laag_1" xmlns="http://www.w3.org/2000/svg" xmlns:xlink="http://www.w3.org/1999/xlink" x="0px" y="0px"
	 viewBox="0 0 118.26 20.38" style="enable-background:new 0 0 118.26 20.38;" xml:space="preserve">
<style type="text/css">
	.st0{fill:#FFFFFF;}
</style>
<polygon class="st0" points="11.86,0.2 8.08,8.81 4.09,0.2 0,0.2 7.3,15.49 8.94,15.49 15.91,0.2 "/>
<g>
	<path class="st0" d="M24.23,0.2c5.51,0,8.34,3.43,8.34,7.57c0,4.34-2.74,7.52-8.76,7.52h-6.24V0.2H24.23z M21.33,12.52h2.46
		c3.78,0,4.91-2.57,4.91-4.78c0-2.59-1.39-4.78-4.96-4.78h-2.41V12.52z"/>
</g>
<polygon class="st0" points="35.34,0.2 35.34,15.29 46.85,15.29 46.85,12.52 39.1,12.52 39.1,0.2 "/>
<g>
	<path class="st0" d="M69.51,4.54c-1.93-0.93-3.78-1.39-5.64-1.39c-4.09,0-5.53,2.52-5.53,4.76c0,2.68,2.1,4.45,5.22,4.45
		c0.93,0,1.39-0.09,2.5-0.53v-1.77h-2.19V7.28h5.95v6.17c-1.13,1.17-3.92,2.04-6.35,2.04c-5.27,0-9.01-3.21-9.01-7.72
		c0-4.6,3.72-7.77,9.09-7.77c2.26,0,4.45,0.51,5.95,1.24V4.54z"/>
	<path class="st0" d="M76.03,8.01h0.04c0.95-2.12,2.01-3.12,3.25-3.12c0.64,0,1.19,0.24,2.12,0.93l-0.89,2.83
		c-0.84-0.53-1.39-0.75-1.9-0.75c-1.17,0-1.93,1.11-2.63,2.99v4.4h-3.21V5.09h3.21V8.01z"/>
	<path class="st0" d="M87.36,15.49c-3.34,0-5.78-2.1-5.78-5.31c0-3.48,2.77-5.29,5.78-5.29c2.5,0,5.73,1.39,5.73,5.31
		C93.1,14.25,89.62,15.49,87.36,15.49 M87.36,6.79c-1.39,0-2.35,1.08-2.35,3.39c0,2.63,1.13,3.41,2.35,3.41c1.5,0,2.3-1.24,2.3-3.47
		C89.67,8.12,88.98,6.79,87.36,6.79"/>
	<path class="st0" d="M105.2,14.14c-1.84,1.35-3.76,1.35-4.56,1.35c-3.58,0-5.91-2.08-5.91-5.27c0-3.12,2.23-5.33,5.38-5.33
		c2.97,0,5.42,2.1,5.27,5.82h-7.33c0.11,1.81,1.35,2.88,3.36,2.88c1.28,0,2.28-0.38,3.78-1.46V14.14z M102.55,9.03
		c-0.13-1.39-0.97-2.23-2.21-2.23c-1.26,0-2.08,0.82-2.21,2.23H102.55z"/>
	<path class="st0" d="M110.6,5.97c0.91-0.75,1.81-1.08,2.92-1.08c2.65,0,4.74,2.26,4.74,5.18c0,3.28-1.99,5.42-5.02,5.42
		c-0.91,0-1.88-0.27-2.63-0.71v5.6h-3.21V5.09h3.21V5.97z M110.6,12.68c0.64,0.47,1.22,0.66,1.86,0.66c1.57,0,2.54-1.19,2.54-3.1
		c0-1.95-0.89-3.08-2.41-3.08c-0.69,0-1.19,0.2-1.99,0.82V12.68z"/>
</g>
</svg>
