<svg xmlns="http://www.w3.org/2000/svg" viewBox="0 0 71.2 23.82"><defs><style>.cls-1{fill:#fff;}</style></defs><title>Middel 17</title><g id="Laag_2" data-name="Laag 2"><g id="Laag_1-2" data-name="Laag 1"><path class="cls-1" d="M15.43,11.38c-.21,0-.33.3-.33.3a.52.52,0,0,1,.34-.13A1.89,1.89,0,0,1,14,13a2.51,2.51,0,0,1-2.57-.6,2.57,2.57,0,0,1,.54,0,.67.67,0,0,0-.66-.16.59.59,0,0,0-.45.39,1.31,1.31,0,0,1,.57-.23c1.92,2.79,3.38,2.35,3.38,2.35,1-.31.63-3.1.62-3.2a.37.37,0,0,1,.22.09s0-.27-.24-.26M14.33,11a.93.93,0,0,0,.35-.93,6.5,6.5,0,0,0-.28-1.19l-.68-.1a2.2,2.2,0,0,0,.38-.55s-.45-.72-.79-.78-.61,0-.66.44a3.42,3.42,0,0,0,.5,2.3s.66,1.06,1.18.81M7,10.46C6.66,9.9,5.4,8.1,5.4,8.1l-.2.12a1.45,1.45,0,0,1-.2,1,3.21,3.21,0,0,0,2,1.25m1.12,4.85c-.25-.3-1.79-2-1.79-2l-1.8-1.9S3.33,12,4,12.49l1.68,1.22s1.94,1.68,2.18,1.92,2.31,2.5,2.51,2.75c0,0-2-2.76-2.27-3.07M7.2,10.5l.7.09L6.32,6A2.78,2.78,0,0,0,5,6.51c-.32.37-.19.56,0,.73S7.1,10.16,7.2,10.5m4.76,1s.43-.23.37-1A6.91,6.91,0,0,0,12,9.21s-.73-.11-.73-.11a2.33,2.33,0,0,0,.41-.61s-.49-.78-.84-.85a.53.53,0,0,0-.72.49,3.77,3.77,0,0,0,.55,2.5s.7,1.16,1.26.88m-3.44.91a3.85,3.85,0,0,1-1.67-.52,42.79,42.79,0,0,1,2.9,4.49s-1.15-3.77-1.23-4M4.32,9.91s-.65.39-.18.89c0,0,1.86,1.81,3.07,3.28s3,3.79,3,3.79-.33-1-.4-1.1-1.44-2.45-1.61-2.7S6.88,12.3,6.54,11.78A8.13,8.13,0,0,1,4.32,9.91m13.27,5.77c-.44.15-2.07.78-2.43,1s-1.92,1.15-2,1.18-.69.48-.93-.49L8.19,6.51s-.26-.62.49-.63l4.8,0s.33-.14.67.52L17.85,15s.18.53-.26.68m4.72,2.63a3,3,0,0,0-1.54.91.94.94,0,0,0,0-1,1.8,1.8,0,0,0-1.18-.64,1.34,1.34,0,0,0-.17-.83c-.24-.57-1.68-3.91-1.68-3.91l.87.28a2.47,2.47,0,0,0,.86,1.47,1.8,1.8,0,0,1,.76.77c.17.45,0,.85.48,1a.37.37,0,0,0,.36-.09,2.2,2.2,0,0,0-.35-1.88,1.82,1.82,0,0,1,.48,1.82,1.47,1.47,0,0,0,.46-.37S21.56,14.38,21,14l.07-.09s.49.19.81,1.7a1.59,1.59,0,0,0,0-1.35c-.33-.78-.56-.86-.56-.86s-.23-.27-.22-.41.49-.16.54-.31a.64.64,0,0,0,0-.67.38.38,0,0,0-.59-.18c-.14.08-.49.3-.59.24s-.76-.28-.94-.17a.77.77,0,0,0-.46.24,7.56,7.56,0,0,1-2.18-1.26L14.6,5.42a1.88,1.88,0,0,0-2.33-1.19A22.9,22.9,0,0,1,9,4.21C8,4.07,7,4,6.5,4.84c-.29.34,0,1.1,0,1.1L8.1,10.75C5.4,10.7,4.83,9.23,4.83,9.23A1.24,1.24,0,0,0,5,8a5,5,0,0,0-.57-.69A.63.63,0,0,1,4.36,7c0-.12,0-.73,0-.73A.32.32,0,0,0,4.1,6c-.23-.07-1.18,0-.78,1.15,0,0,.18.11-.7,0A2.61,2.61,0,0,0,1,7.18,1.66,1.66,0,0,0,.23,8a2.77,2.77,0,0,1,1.69-.28,3.25,3.25,0,0,0-1.78.45A1.88,1.88,0,0,0,0,8.68a2,2,0,0,1,2.2-.5A2.49,2.49,0,0,0,0,8.89s0,.74.59.57.86-.32,1.18-.18,1.09.85,2,.66a2.19,2.19,0,0,0,.57-.22,6.55,6.55,0,0,0,4.26,2.61L11.4,21.2s.19.55.38.64c0,0-.34.58-1.67.8,0,0-.68,0-.45.53,0,0,.09.29,1.21.44a12.54,12.54,0,0,0,3.54.13s1.45-.19,1.54-.25a.34.34,0,0,0,.14-.54s-.35-.93-1.84-.84a4.17,4.17,0,0,0-1.6.37s-.51.11-.64.12a2.14,2.14,0,0,0,.78-.53,4.44,4.44,0,0,0,1.32-.68c.6-.46,2-1.71,2-1.71a11.46,11.46,0,0,1,1.27-.74,12.65,12.65,0,0,0,1.55-.57l.95.18s.24.06.06.31a1,1,0,0,1-.62.46c-.39.16-1,.28-1.09.36a.52.52,0,0,0-.23.76,2.12,2.12,0,0,0,1.21.74,4.61,4.61,0,0,0,2.05-.06A5.34,5.34,0,0,0,23.57,20c.61-.57.69-1.25.33-1.44a2.35,2.35,0,0,0-1.59-.28"/><path class="cls-1" d="M70,3.51a9.3,9.3,0,0,1-1.22-.12c-.06,0-.08,0-.08.07v.45a.13.13,0,0,0,.13.15c.52.09.72.16.72.55V7.89l-4-4.36a.25.25,0,0,0-.23-.14h-.9c-.1,0-.12.07-.12.14V8.84c0,.51-.08.58-.69.68-.06,0-.08.08-.08.15V10c0,.14.05.2.21.2s.62-.12,1-.12.86.12,1.09.12.22-.08.22-.2V9.69a.15.15,0,0,0-.15-.17c-.58-.08-.72-.17-.72-.68V5.75L69.13,10a.44.44,0,0,0,.43.2h.75c.11,0,.12-.06.12-.18V4.77c0-.53.11-.63.62-.71.12,0,.15-.11.15-.21V3.53a.13.13,0,0,0-.14-.14A7.57,7.57,0,0,1,70,3.51m-21.65,0a9.52,9.52,0,0,1-1.22-.12c-.06,0-.08,0-.08.07v.45a.13.13,0,0,0,.13.15c.53.09.72.16.72.55V7.89l-4-4.36c-.08-.1-.13-.14-.24-.14h-.9c-.1,0-.12.07-.12.14V8.84c0,.51-.08.58-.69.68,0,0-.07.08-.07.15V10c0,.14,0,.2.2.2s.62-.12,1-.12.86.12,1.09.12.22-.08.22-.2V9.69a.15.15,0,0,0-.15-.17c-.58-.08-.72-.17-.72-.68V5.75L47.48,10a.45.45,0,0,0,.43.2h.75c.11,0,.13-.06.13-.18V4.77c0-.53.1-.63.61-.71.13,0,.16-.11.16-.21V3.53a.13.13,0,0,0-.14-.14,8,8,0,0,1-1.08.12m-14.45,0a13.7,13.7,0,0,1-1.39-.12c-.16,0-.2,0-.2.2v.26q0,.18.12.21c.51.13.6.18.6.68v4.1c0,.51-.09.55-.6.68-.08,0-.12.1-.12.22V10c0,.18,0,.2.2.2s.77-.12,1.39-.12,1.13.12,1.38.12.19,0,.19-.2V9.74c0-.12,0-.2-.11-.22-.51-.13-.61-.17-.61-.68V4.74c0-.5.1-.55.61-.68.08,0,.11-.09.11-.21V3.59c0-.18,0-.2-.15-.2s-.79.12-1.42.12M28.81,5.37c0-.7-.32-1.19-1.06-1.19-.21,0-.4.09-.4.26V6.56h.22c.87,0,1.24-.3,1.24-1.19M32,10.1c0,.28-.44.3-.71.3A2.82,2.82,0,0,1,28.94,9L27.7,7.29h-.35V8.84c0,.51.1.55.61.68.07,0,.11.1.11.22V10c0,.18,0,.2-.2.2s-.75-.12-1.38-.12-1.17.12-1.38.12-.2,0-.2-.2V9.74c0-.12,0-.2.11-.22.52-.13.61-.17.61-.68V4.71c0-.37-.07-.55-.4-.59s-.38-.08-.38-.22V3.54c0-.12,0-.15.13-.15l.62,0a8.66,8.66,0,0,0,1.14.07l.69,0c.26,0,.57,0,1,0,1.75,0,2.22.89,2.22,1.71a1.92,1.92,0,0,1-1.22,1.71L31.31,9.3c.44.57.72.53.72.8M70,3.51a9.3,9.3,0,0,1-1.22-.12c-.06,0-.08,0-.08.07v.45a.13.13,0,0,0,.13.15c.52.09.72.16.72.55V7.89l-4-4.36a.25.25,0,0,0-.23-.14h-.9c-.1,0-.12.07-.12.14V8.84c0,.51-.08.58-.69.68-.06,0-.08.08-.08.15V10c0,.14.05.2.21.2s.62-.12,1-.12.86.12,1.09.12.22-.08.22-.2V9.69a.15.15,0,0,0-.15-.17c-.58-.08-.72-.17-.72-.68V5.75L69.13,10a.44.44,0,0,0,.43.2h.75c.11,0,.12-.06.12-.18V4.77c0-.53.11-.63.62-.71.12,0,.15-.11.15-.21V3.53a.13.13,0,0,0-.14-.14A7.57,7.57,0,0,1,70,3.51m-12.42,0V3.9c0,.14.07.18.38.22s.4.22.4.59V8.82c0,.36-.07.58-.28.63l-.35.07c-.12,0-.15.06-.15.17v.39c0,.08,0,.12.08.12.38,0,1-.12,2.31-.12s2.37.06,2.93.12c.09-.58.31-1.36.31-1.52s0-.13-.15-.13h-.51c-.11,0-.17,0-.26.34s-.27.52-.64.52c-1.46,0-1.57-.05-1.57-.87V7.1h1.31c.19,0,.32.05.34.21,0,.38.11.41.19.41h.54c.12,0,.16-.07.16-.18s0-.4,0-.78,0-.63,0-.83-.06-.17-.16-.17h-.53c-.1,0-.13.07-.15.15-.09.43-.12.46-.33.46H60.07V4.24h1.09c.28,0,.37,0,.54.66a.22.22,0,0,0,.22.14h.46c.13,0,.17-.07.17-.18s-.09-.75-.1-1.41h-.09l-.66,0c-.29,0-.68,0-1.19,0H60a15.16,15.16,0,0,1-1.53-.07l-.79,0c-.11,0-.13,0-.13.15m-2,3.27c0-1.6-.74-2.63-2.41-2.63-.72,0-.74.11-.74.3V8.54c0,.66.26.93,1.17.93,1.38,0,2-1.32,2-2.66m1.89-.17a3.45,3.45,0,0,1-3.78,3.56c-.76,0-1.23-.12-2.23-.12-.76,0-1.2.12-1.44.12-.05,0-.09,0-.09-.12V9.69c0-.1,0-.14.28-.17.49,0,.5-.21.5-.81v-4c0-.37-.08-.55-.41-.59S49.9,4,49.9,3.9V3.54c0-.15,0-.15.13-.15l.62,0a8.54,8.54,0,0,0,1.14.07c.37,0,.69,0,1,0s.7,0,1.14,0a3.22,3.22,0,0,1,3.48,3.19m-9.1-3.13a9.52,9.52,0,0,1-1.22-.12c-.06,0-.08,0-.08.07v.45a.13.13,0,0,0,.13.15c.53.09.72.16.72.55V7.89l-4-4.36c-.08-.1-.13-.14-.24-.14h-.9c-.1,0-.12.07-.12.14V8.84c0,.51-.08.58-.69.68,0,0-.07.08-.07.15V10c0,.14,0,.2.2.2s.62-.12,1-.12.86.12,1.09.12.22-.08.22-.2V9.69a.15.15,0,0,0-.15-.17c-.58-.08-.72-.17-.72-.68V5.75L47.48,10a.45.45,0,0,0,.43.2h.75c.11,0,.13-.06.13-.18V4.77c0-.53.1-.63.61-.71.13,0,.16-.11.16-.21V3.53a.13.13,0,0,0-.14-.14,8,8,0,0,1-1.08.12m-12.2,0V3.9c0,.14.07.18.38.22s.4.22.4.59V8.82c0,.36-.07.58-.28.63l-.35.07c-.12,0-.15.06-.15.17v.39c0,.08,0,.12.09.12.37,0,1-.12,2.3-.12s2.37.06,2.92.12c.1-.58.32-1.36.32-1.52s0-.13-.16-.13h-.5c-.11,0-.17,0-.26.34s-.27.52-.64.52c-1.46,0-1.57-.05-1.57-.87V7.1H40c.19,0,.32.05.34.21,0,.38.11.41.19.41H41a.16.16,0,0,0,.18-.18c0-.16-.06-.4-.06-.78s.06-.63.06-.83-.07-.17-.18-.17h-.52c-.1,0-.13.07-.15.15-.09.43-.12.46-.33.46H38.64V4.24h1.09c.28,0,.37,0,.54.66a.22.22,0,0,0,.22.14H41c.13,0,.17-.07.17-.18S41,4.11,41,3.45h-.08l-.66,0c-.29,0-.68,0-1.19,0h-.49a15.16,15.16,0,0,1-1.53-.07l-.79,0c-.11,0-.13,0-.13.15m-2.25,0a13.7,13.7,0,0,1-1.39-.12c-.16,0-.2,0-.2.2v.26q0,.18.12.21c.51.13.6.18.6.68v4.1c0,.51-.09.55-.6.68-.08,0-.12.1-.12.22V10c0,.18,0,.2.2.2s.77-.12,1.39-.12,1.13.12,1.38.12.19,0,.19-.2V9.74c0-.12,0-.2-.11-.22-.51-.13-.61-.17-.61-.68V4.74c0-.5.1-.55.61-.68.08,0,.11-.09.11-.21V3.59c0-.18,0-.2-.15-.2s-.79.12-1.42.12M24.56.18A14.32,14.32,0,0,0,26.16,0c.17,0,.21.12.21.26V.74c0,.17-.15.21-.32.25a1,1,0,0,0-.83.71l-3.65,8c-.08.16-.17.4-.35.4H20.3c-.16,0-.26-.18-.34-.36L16.42,1.85c-.3-.67-.39-.79-1-.86a.2.2,0,0,1-.18-.21V.14c0-.1.09-.14.22-.14.39,0,1.09.18,2.07.18S19.37,0,19.78,0c.14,0,.2.12.2.25V.71c0,.2-.06.26-.21.28-.58.07-.69.12-.69.38a3.64,3.64,0,0,0,.32.94l2,4.66L23.3,2.84c.42-.93.46-1.11.46-1.33s-.05-.36-1.05-.52c-.1,0-.16-.07-.16-.21V.26c0-.15,0-.26.22-.26s.9.18,1.79.18"/><path class="cls-1" d="M44.68,10.85c-.33,0-.19.21-.59.21H39.33c-.21,0-.23-.21-.46-.21h-.38c-.1,0-.17,0-.18.08S38,12.3,38,12.44a.14.14,0,0,0,.15.13h.43a.3.3,0,0,0,.33-.2c.16-.4.24-.45.51-.44h1.32v4.64c0,.49,0,.69-.68.74-.13,0-.17.07-.17.18v.32c0,.1,0,.19.11.19a15.43,15.43,0,0,1,1.62-.13,15.43,15.43,0,0,1,1.62.13c.07,0,.1-.09.1-.19v-.32c0-.11,0-.17-.16-.18-.65,0-.68-.25-.68-.74V11.93h1.17c.41,0,.47.28.51.48a.19.19,0,0,0,.2.16h.41c.09,0,.15-.06.19-.21s.26-1.3.26-1.39-.06-.12-.14-.12Z"/><path class="cls-1" d="M45.5,11.15v.37c0,.15.06.19.38.23s.41.23.41.6v4.23c0,.37-.07.6-.29.65l-.35.08c-.13,0-.15.06-.15.17v.39c0,.09,0,.13.08.13.38,0,1.05-.13,2.34-.13s2.42.07,3,.13c.09-.6.32-1.4.32-1.56s0-.13-.16-.13h-.52c-.11,0-.17,0-.26.34-.15.47-.27.54-.65.54-1.49,0-1.6-.06-1.6-.89V14.82h1.33c.19,0,.33,0,.34.21,0,.39.12.42.21.42h.54c.12,0,.17-.07.17-.18s-.06-.42-.06-.8.06-.66.06-.86-.07-.18-.17-.18h-.54c-.1,0-.13.08-.15.16-.09.45-.12.48-.34.48H48v-2.2h1.1c.29,0,.38,0,.56.68a.22.22,0,0,0,.22.15h.47c.13,0,.17-.08.17-.19s-.09-.77-.1-1.45h-.09l-.67,0c-.3,0-.69,0-1.21,0H48c-.65,0-1.16,0-1.56-.07s-.66-.06-.8-.06-.13,0-.13.16"/><path class="cls-1" d="M60.84,11.12A14,14,0,0,1,59.43,11c-.16,0-.2,0-.2.2v.27c0,.12,0,.2.12.22.52.13.61.18.61.7V16.6c0,.53-.09.57-.61.71-.08,0-.12.09-.12.22v.27c0,.18,0,.2.2.2s.78-.12,1.41-.12S62,18,62.25,18s.2,0,.2-.2v-.27c0-.13,0-.2-.12-.22-.52-.14-.61-.18-.61-.71V12.39c0-.52.09-.57.61-.7.08,0,.12-.1.12-.22V11.2c0-.18,0-.2-.16-.2s-.8.12-1.45.12"/><path class="cls-1" d="M27.41,11.14c-1.09,0-1.87-.18-2.32-.18-.17,0-.19,0-.19.22v.54c0,.23.09.28.56.34s.59.34.59.89v6.21c0,.54-.09.88-.41.95l-.52.11c-.18,0-.22.08-.22.25v.59c0,.12.05.18.12.18.56,0,1.54-.18,3.44-.18,1.72,0,3,.11,4.25.18.14-.88.53-2.11.53-2.26a.32.32,0,0,0-.31-.34h-.66c-.25,0-.33.1-.47.49-.21.61-.45.84-.82.84H29.79c-.89,0-1.16-.26-1.16-1.23V13c0-.69.23-.93.57-1,.59-.07.63-.1.63-.29v-.51c0-.27-.06-.3-.27-.3a18.42,18.42,0,0,1-2.15.18"/><path class="cls-1" d="M34.28,17.19c-1.43,0-1.93-1.26-1.93-2.69,0-1.23.52-2.69,1.93-2.69s1.92,1.25,1.92,2.69c0,1.23-.51,2.69-1.92,2.69m0-6.25a3.6,3.6,0,0,0-3.91,3.56c0,2.31,1.67,3.56,3.91,3.56a3.61,3.61,0,0,0,3.9-3.56c0-2.31-1.67-3.56-3.9-3.56"/><path class="cls-1" d="M44.68,10.85c-.33,0-.19.21-.59.21H39.33c-.21,0-.23-.21-.46-.21h-.38c-.1,0-.17,0-.18.08S38,12.3,38,12.44a.14.14,0,0,0,.15.13h.43a.3.3,0,0,0,.33-.2c.16-.4.24-.45.51-.44h1.32v4.64c0,.49,0,.69-.68.74-.13,0-.17.07-.17.18v.32c0,.1,0,.19.11.19a15.43,15.43,0,0,1,1.62-.13,15.43,15.43,0,0,1,1.62.13c.07,0,.1-.09.1-.19v-.32c0-.11,0-.17-.16-.18-.65,0-.68-.25-.68-.74V11.93h1.17c.41,0,.47.28.51.48a.19.19,0,0,0,.2.16h.41c.09,0,.15-.06.19-.21s.26-1.3.26-1.39-.06-.12-.14-.12Z"/><path class="cls-1" d="M45.5,11.15v.37c0,.15.06.19.38.23s.41.23.41.6v4.23c0,.37-.07.6-.29.65l-.35.08c-.13,0-.15.06-.15.17v.39c0,.09,0,.13.08.13.38,0,1.05-.13,2.34-.13s2.42.07,3,.13c.09-.6.32-1.4.32-1.56s0-.13-.16-.13h-.52c-.11,0-.17,0-.26.34-.15.47-.27.54-.65.54-1.49,0-1.6-.06-1.6-.89V14.82h1.33c.19,0,.33,0,.34.21,0,.39.12.42.21.42h.54c.12,0,.17-.07.17-.18s-.06-.42-.06-.8.06-.66.06-.86-.07-.18-.17-.18h-.54c-.1,0-.13.08-.15.16-.09.45-.12.48-.34.48H48v-2.2h1.1c.29,0,.38,0,.56.68a.22.22,0,0,0,.22.15h.47c.13,0,.17-.08.17-.19s-.09-.77-.1-1.45h-.09l-.67,0c-.3,0-.69,0-1.21,0H48c-.65,0-1.16,0-1.56-.07s-.66-.06-.8-.06-.13,0-.13.16"/><path class="cls-1" d="M54.31,14.26h-.22V12.07c0-.17.19-.26.4-.26.76,0,1.08.51,1.08,1.23,0,.91-.38,1.22-1.26,1.22m3.81,2.82-1.93-2.5a2,2,0,0,0,1.25-1.77c0-.83-.49-1.74-2.27-1.74-.43,0-.74,0-1,0l-.69,0a9,9,0,0,1-1.17-.07L51.68,11c-.12,0-.14,0-.14.15v.37c0,.15.07.19.39.23s.4.23.4.6V16.6c0,.53-.09.57-.62.71-.07,0-.11.09-.11.22v.27c0,.18,0,.2.2.2s.78-.12,1.41-.12,1.15.12,1.41.12.2,0,.2-.2v-.27c0-.13,0-.2-.11-.22-.53-.14-.62-.18-.62-.71V15h.35L55.7,16.8a2.88,2.88,0,0,0,2.43,1.4c.27,0,.72,0,.72-.3s-.29-.24-.73-.82"/><path class="cls-1" d="M60.84,11.12A14,14,0,0,1,59.43,11c-.16,0-.2,0-.2.2v.27c0,.12,0,.2.12.22.52.13.61.18.61.7V16.6c0,.53-.09.57-.61.71-.08,0-.12.09-.12.22v.27c0,.18,0,.2.2.2s.78-.12,1.41-.12S62,18,62.25,18s.2,0,.2-.2v-.27c0-.13,0-.2-.12-.22-.52-.14-.61-.18-.61-.71V12.39c0-.52.09-.57.61-.7.08,0,.12-.1.12-.22V11.2c0-.18,0-.2-.16-.2s-.8.12-1.45.12"/><path class="cls-1" d="M64.84,11.13c-.73,0-1.39-.12-1.55-.12a.16.16,0,0,0-.15.18v.33c0,.11,0,.16.24.18.43,0,.58.22.58.65V17c0,1.59-.12,1.89-.85,1.89a2.52,2.52,0,0,1-.48-.05V20h.22c.64,0,2.86-.7,2.86-3.79V12.4c0-.51.1-.56.62-.7.08,0,.12-.1.12-.22v-.27c0-.18,0-.2-.2-.2-.31,0-.75.12-1.41.12"/><path class="cls-1" d="M2.4,8.5a1,1,0,0,1,.68-.33.86.86,0,0,1,.7.42.73.73,0,0,0-.65-.3,1.27,1.27,0,0,0-.73.21"/><path class="cls-1" d="M0,8.82a1.38,1.38,0,0,1,.91-.65,1.52,1.52,0,0,1,1.22.13A2.74,2.74,0,0,0,1,8.29,3.1,3.1,0,0,0,0,8.82"/><path class="cls-1" d="M2.26,7.84a5.19,5.19,0,0,0-1-.12A2.9,2.9,0,0,0,.36,8a2.13,2.13,0,0,1,.93-.37c.47,0,1.15.09,1,.22"/><path class="cls-1" d="M2.16,8a.28.28,0,0,1,.07-.27.23.23,0,0,1,.26,0,.41.41,0,0,0-.2.1A.7.7,0,0,0,2.16,8"/></g></g></svg>